<?xml version="1.0" encoding="UTF-8" standalone="no"?>
<!-- Created with Inkscape (http://www.inkscape.org/) -->

<svg
   width="210mm"
   height="297mm"
   viewBox="0 0 210 297"
   version="1.1"
   id="svg1"
   inkscape:version="1.3-beta (cedbd6c6ff, 2023-05-28)"
   sodipodi:docname="host_button.svg"
   xmlns:inkscape="http://www.inkscape.org/namespaces/inkscape"
   xmlns:sodipodi="http://sodipodi.sourceforge.net/DTD/sodipodi-0.dtd"
   xmlns="http://www.w3.org/2000/svg"
   xmlns:svg="http://www.w3.org/2000/svg">
  <sodipodi:namedview
     id="namedview1"
     pagecolor="#505050"
     bordercolor="#eeeeee"
     borderopacity="1"
     inkscape:showpageshadow="0"
     inkscape:pageopacity="0"
     inkscape:pagecheckerboard="0"
     inkscape:deskcolor="#505050"
     inkscape:document-units="mm"
     inkscape:zoom="1"
     inkscape:cx="429.5"
     inkscape:cy="360.5"
     inkscape:window-width="1920"
     inkscape:window-height="1030"
     inkscape:window-x="-8"
     inkscape:window-y="22"
     inkscape:window-maximized="1"
     inkscape:current-layer="text2" />
  <defs
     id="defs1">
    <rect
       x="233"
       y="219"
       width="436"
       height="163"
       id="rect6" />
  </defs>
  <g
     inkscape:label="Layer 1"
     inkscape:groupmode="layer"
     id="layer1">
    <g
       id="text2"
       transform="scale(0.26458333)"
       inkscape:label="text2">
      <g
         id="text6">
        <path
           style="color:#000000;fill:#000000;-inkscape-stroke:none"
           d="m 449.43164,227.38281 c -6.38499,0 -12.14321,1.20403 -17.04883,3.83203 l -0.0117,0.006 -0.01,0.006 c -4.78463,2.59408 -8.61341,6.44411 -11.11719,11.21875 -2.49881,4.76518 -3.66797,10.27319 -3.66797,16.28906 0,9.43629 2.30106,17.41882 7.50195,23.10352 5.17041,5.65137 12.74319,8.39258 21.40235,8.39258 3.88922,0 7.4651,-0.27874 10.75,-0.8711 3.15981,-0.5698 6.21146,-1.35055 9.14453,-2.3457 l 3.39258,-1.15039 v -5.76953 c 0.83793,2.26769 2.12919,4.28614 3.94726,5.87695 3.24935,2.84318 7.54296,4.25977 12.00586,4.25977 3.7542,0 7.06245,-0.49181 9.98438,-1.99024 0.42647,-0.2187 0.78737,-0.55915 1.19531,-0.8125 l 0.81641,2.08399 h 15.89843 v -31.20899 c 0,-5.69383 -1.97096,-11.00931 -6.10742,-14.32226 -3.97497,-3.26661 -9.25166,-4.57422 -15.23633,-4.57422 -3.16868,0 -6.27011,0.38572 -9.26757,1.1582 -2.90918,0.70283 -5.6023,1.66422 -8.05664,2.91992 l -4.35938,2.22852 6.21484,12.80859 c -0.54912,0.29593 -1.13402,0.54292 -1.64843,0.88868 -2.54845,1.71289 -4.30383,4.26684 -5.38672,7.14453 v -15.91602 h -5.89649 l 7.30469,-17.67969 -4.44922,-1.97656 c -2.5117,-1.11631 -5.23631,-1.98231 -8.16406,-2.62109 -2.99146,-0.65268 -6.04399,-0.97852 -9.13086,-0.97852 z m -214.95117,0.72071 v 61.4082 h 20.87109 v -22.17578 h 10.37696 v 22.17578 h 20.87109 v -5 -16.9961 c 0.29693,3.9018 1.05937,7.5874 2.75195,10.77344 l 0.008,0.0137 0.008,0.0156 c 2.03279,3.76665 4.99828,6.85441 8.65625,8.90039 l 0.0156,0.008 0.0156,0.01 c 3.66109,2.0136 7.82949,2.99414 12.20117,2.99414 6.89911,0 13.15469,-2.26888 17.56055,-6.85156 1.24216,-1.27859 2.26231,-2.7278 3.14257,-4.27149 v 7.16016 l 3.08594,1.27734 c 2.26975,0.94112 4.58222,1.6177 6.91992,2.02149 2.38165,0.46013 5.00685,0.66406 7.95508,0.66406 6.20018,0 11.48807,-1.10154 15.55078,-4.1836 l 0.004,-0.004 0.006,-0.004 c 3.41243,-2.6027 5.42053,-6.60433 5.97265,-10.91797 0.23999,2.70507 0.72988,5.24505 1.97657,7.45508 l 0.0234,0.041 0.0234,0.041 c 1.56408,2.65213 3.9292,4.83748 6.75977,6.0293 l 0.0195,0.008 0.0215,0.01 c 2.5523,1.04709 5.33816,1.52539 8.23438,1.52539 2.28622,0 4.45277,-0.18904 6.5039,-0.59766 2.00271,-0.38977 3.79754,-0.90191 5.44336,-1.65625 l 2.91602,-1.33789 v -18.23242 l -6.64258,2.31055 c -0.88331,0.30723 -1.75405,0.54758 -2.61914,0.74023 -0.67855,0.11341 -1.41525,0.16438 -2.18555,0.17969 v -13.37305 h 11.01563 v -18.06445 h -11.01563 v -8.35156 h -15.30859 l -3.70508,9.91015 -3.16406,1.92969 -1.36133,-0.63867 c -2.64447,-1.24129 -5.2769,-2.16558 -7.90234,-2.73633 -2.58282,-0.56148 -5.27208,-0.83398 -8.04688,-0.83398 -5.35025,0 -10.12022,1.02681 -14.01172,3.5332 -3.01331,1.94078 -5.10021,5.06328 -6.01171,8.53515 -0.0254,-0.0479 -0.0309,-0.10655 -0.0566,-0.15429 -2.03279,-3.76665 -4.99633,-6.85441 -8.65429,-8.90039 -3.64078,-2.03637 -7.82214,-3.01367 -12.23242,-3.01367 -6.93318,0 -13.20267,2.22262 -17.625,6.76953 -3.68327,3.78702 -5.63639,8.89503 -6.24805,14.67773 v -32.82226 h -20.87109 v 20.16015 h -10.37696 v -20.16015 z m 10,10 h 0.87109 v 19.23242 0.92773 21.24805 h -0.87109 z m 31.24805,0 h 0.87109 v 41.4082 h -0.87109 v -21.24805 -0.92773 z m 265.57617,1.375 c -2.92976,0 -5.82831,0.60847 -8.53516,1.77734 l -0.0195,0.01 -0.0195,0.008 c -0.25059,0.11072 -0.44178,0.31934 -0.68555,0.44336 l -0.43359,-1.51758 h -16.97852 v 49.3125 h 20.72656 v -23.50391 c 0,-3.72872 0.58763,-6.24662 1.12696,-7.33008 0.32034,-0.65262 0.0483,-0.63086 1.7207,-0.63086 0.76881,0 0.22966,-0.15669 0.32227,-0.0234 0.0926,0.13325 0.58203,1.26663 0.58203,3.51953 v 27.96875 h 20.72851 V 264.7832 c 0,-3.26457 0.60045,-5.32227 1.09571,-6.15429 0.31577,-0.53049 0.10639,-0.58203 1.75195,-0.58204 0.76881,0 0.22966,-0.15669 0.32227,-0.0234 0.0926,0.13325 0.58203,1.26663 0.58203,3.51953 v 27.96875 h 20.72851 v -15.06836 c 0.49811,1.58284 1.0937,3.11092 1.90821,4.51367 l 0.008,0.0156 0.01,0.0156 c 2.18844,3.70818 5.37538,6.67333 9.22657,8.56836 l 0.0293,0.0156 0.0293,0.0137 c 3.78426,1.80203 8.04214,2.64453 12.58789,2.64453 3.26153,0 6.14594,-0.25018 8.74414,-0.83399 2.51196,-0.51723 4.94957,-1.34687 7.27344,-2.48046 l 2.80664,-1.36915 v -13.02734 h 2.23242 v -10.18359 c 0,-6.63111 -1.99085,-12.60415 -6.26367,-16.75391 -4.1832,-4.10961 -10.00297,-6.10351 -16.37695,-6.10351 -4.38864,0 -8.53133,0.93767 -12.13477,2.92578 -3.66729,2.02333 -6.60482,5.16919 -8.58008,9 l -0.0137,0.0273 -0.0156,0.0273 c -0.74856,1.49712 -1.18971,3.1721 -1.63086,4.84766 -0.3605,-4.71385 -1.71515,-8.89357 -4.77149,-11.90625 -3.40764,-3.45015 -8.30388,-4.92187 -13.60547,-4.92187 -2.92975,0 -5.8337,0.60708 -8.56836,1.76171 l -0.0176,0.008 -0.0195,0.008 c -1.25054,0.54001 -2.35991,1.33686 -3.42382,2.17969 -0.95899,-0.76934 -1.9403,-1.52 -3.06055,-2.03321 -2.81449,-1.35677 -5.98129,-1.92382 -9.38867,-1.92382 z m -103.23828,0.20507 c -2.92217,1.93399 -5.29304,4.62514 -6.875,7.84766 l -0.0156,0.0332 -0.0156,0.0332 c -1.61329,3.41273 -2.35157,7.25591 -2.35157,11.35351 0,3.81238 0.51388,7.35781 1.65039,10.58789 1.18631,3.37162 3.23581,6.34297 6.02149,8.44922 l 0.0312,0.0234 0.0312,0.0215 c 0.31459,0.23019 0.66799,0.391 0.99805,0.59375 -1.99774,-0.85492 -3.68337,-2.00816 -5.08399,-3.53906 -3.05509,-3.33929 -4.88086,-8.50982 -4.88086,-16.35352 0,-4.73611 0.89426,-8.53771 2.52344,-11.64453 1.6211,-3.0914 3.83815,-5.33594 7.01172,-7.06054 0.27832,-0.14899 0.66302,-0.2083 0.95508,-0.34571 z m -57.13868,6.51953 v 2.06055 1.93555 22 c 0,2.45574 0.91218,5.28782 2.97461,7.12109 l 0.0586,0.0527 0.0625,0.0508 c 0.15898,0.13249 0.36646,0.16922 0.5332,0.28906 -0.45233,-0.114 -1.07084,-0.095 -1.46484,-0.25586 -0.78728,-0.33606 -1.34349,-0.79569 -1.96485,-1.83008 -0.41604,-0.75407 -0.92773,-2.56262 -0.92773,-5.42773 v -23.93555 h -0.041 z m 68.43164,0.25196 c 1.80945,0 3.48711,0.21426 5.07032,0.6289 1.71578,0.44938 3.17035,1.00147 4.37695,1.62305 l 3.75,1.93164 h -21.53906 c 0.76464,-1.14287 1.6127,-2.08859 2.69726,-2.76953 1.49481,-0.90985 3.24542,-1.41406 5.64453,-1.41406 z m 35.47461,1.93359 c -0.0205,0.006 -0.0401,0.0175 -0.0605,0.0234 -0.0179,0.006 -0.0369,0.006 -0.0547,0.0117 z m -126.82031,0.0918 0.11914,0.0391 c -0.0128,-0.004 -0.0263,-0.006 -0.0391,-0.01 -0.0258,-0.008 -0.0543,-0.0214 -0.0801,-0.0293 z m 185.77344,1.21875 c 1.04743,0.16648 1.9509,0.3974 2.59766,0.71289 l 0.0644,0.0332 0.0664,0.0293 c 1.09775,0.4966 1.74904,1.08811 2.37891,2.21094 l 1.43359,2.55273 h 1.36524 c -1.24545,2.82311 -1.85352,5.93974 -1.85352,9.54492 v 14.72852 h -0.72851 v -17.96875 c 0,-3.41109 -0.49375,-6.52587 -2.36914,-9.22461 -0.75301,-1.0836 -1.80661,-1.92767 -2.95508,-2.61914 z m 24.69531,0.13672 c 1.73454,0.32423 3.06086,0.834 3.8086,1.59765 l 0.0371,0.0371 0.0371,0.0371 c 0.97409,0.9538 1.95508,3.09301 1.95508,7.3711 v 20.63281 h -0.72851 v -17.96875 c 0,-3.41109 -0.49375,-6.52587 -2.36914,-9.22461 -0.70516,-1.01474 -1.68129,-1.80995 -2.74024,-2.48242 z m -68.89844,0.1582 0.084,0.0723 c -0.0121,-0.011 -0.0289,-0.0126 -0.041,-0.0234 -0.0167,-0.0147 -0.0262,-0.0342 -0.043,-0.0488 z m 116.4961,1.39844 0.0566,0.0742 c -0.0107,-0.0141 -0.0263,-0.0231 -0.0371,-0.0371 -0.009,-0.0111 -0.0108,-0.026 -0.0195,-0.0371 z m -115.05664,0.24609 c 0.0383,0.0303 0.1192,0.0455 0.15625,0.0762 l 0.0371,0.0293 0.0352,0.0293 c 1.50732,1.20074 2.36328,2.8287 2.36328,6.52929 v 18.85157 l -1.16406,-2.97071 h -0.3418 c 0.53517,-1.4947 0.85157,-3.07511 0.85157,-4.64843 v -4.66016 -3.75586 -2.81641 c 0,-2.27279 -0.57185,-4.69447 -1.9375,-6.66406 z m -158.53125,0.11719 c -0.56253,1.04473 -0.94922,2.17543 -0.94922,3.23437 0,1.64964 0.59812,3.38419 1.5332,4.66993 l 0.15235,0.21093 0.17578,0.19336 c 0.50155,0.55728 0.99617,0.93038 1.49804,1.29492 -0.48131,-0.26215 -1.23423,-0.57271 -1.61523,-0.8125 -0.9294,-0.65003 -1.46278,-1.26575 -1.81055,-1.9082 -0.30203,-0.59529 -0.58789,-1.60412 -0.58789,-3.21484 0,-2.08882 0.44553,-2.82625 1.60352,-3.66797 z m 182.14062,0.41992 0.875,3.0625 h 1.70508 c -1.31274,3.10812 -1.85351,6.59665 -1.85352,10.76953 v 13.50391 h -0.72656 z m -224.48242,0.93359 c -0.0547,0.078 -0.13695,0.13122 -0.18945,0.21094 l -0.01,0.0137 -0.008,0.0117 c -2.08847,3.21303 -2.67969,7.01453 -2.67969,11.4375 0,3.98886 0.55984,7.46511 2.12891,10.49024 -0.41179,-0.54453 -0.85486,-1.02611 -1.21485,-1.69141 -1.16699,-2.20309 -1.85742,-5.06122 -1.85742,-8.79883 0,-5.65789 1.36934,-9.171 3.69531,-11.5625 0.0413,-0.0425 0.0931,-0.0696 0.13477,-0.11133 z m 20.51367,0.16407 0.0781,0.11914 c -0.0103,-0.0162 -0.0268,-0.0269 -0.0371,-0.043 -0.0162,-0.0243 -0.0247,-0.0519 -0.041,-0.0762 z m 0.47461,0.88672 c 0.49365,0.61682 1.00059,1.2018 1.42188,1.98242 1.15938,2.14827 1.84765,4.95026 1.84765,8.64062 0,5.5182 -1.3333,8.99987 -3.62304,11.44727 2.03194,-3.2235 2.67968,-7.05315 2.67968,-11.44727 0,-4.05431 -0.5851,-7.58699 -2.32617,-10.62304 z m 118.25391,0.18945 v 1.28906 8.53516 c -0.34102,-1.54171 -0.58399,-3.2227 -0.58399,-5.22266 0,-1.76485 0.23963,-3.24558 0.58399,-4.60156 z m 155.625,1.18945 c -0.46889,1.4133 -0.82033,2.88574 -0.95117,4.42969 l -0.2168,2.55078 h -0.17969 l 0.0488,1.53711 -0.11328,1.33398 h 0.15625 l 0.0723,2.28711 c 0.0827,2.60358 0.73377,5.12394 1.90625,7.34571 -0.28213,-0.37749 -0.61582,-0.67038 -0.87109,-1.10157 -1.16734,-2.01631 -1.9082,-4.85829 -1.9082,-8.77929 0,-3.98366 0.67932,-6.99667 1.76562,-9.18164 0.0872,-0.16835 0.20115,-0.26239 0.29102,-0.42188 z m -102.05664,1.94531 0.0215,0.0195 0.041,0.0351 c -0.23491,-0.20426 -0.0625,-0.40885 -0.0625,0.76367 z m -182.63282,0.63477 c 1.74111,0 1.65233,0.12993 1.96875,0.62891 l 0.0391,0.0605 0.0391,0.0606 c 0.4204,0.62281 1.08984,2.58162 1.08984,5.91406 0,3.33244 -0.64503,5.36623 -1.15039,6.15235 l -0.008,0.0117 -0.01,0.0137 c -0.33195,0.52346 -0.22267,0.63086 -1.89648,0.63086 -1.65471,0 -1.72297,-0.16488 -2.03516,-0.64844 -0.48749,-0.81881 -1.10156,-2.85714 -1.10156,-6.16016 0,-3.34457 0.6528,-5.34424 1.06055,-5.97656 0.36233,-0.55403 0.3497,-0.6875 2.0039,-0.6875 z m 308.41797,0.0937 c 0.10171,0.48379 0.19594,0.98491 0.25782,1.5293 -0.0278,-0.52011 -0.18144,-1.01566 -0.25782,-1.5293 z m -252.55273,0.0508 h 4.00586 v 10.21875 c -0.33305,-1.36704 -0.85064,-2.67308 -1.58594,-3.88476 -0.8835,-1.50545 -2.10871,-2.75369 -3.45898,-3.86524 z m -3.07422,0.91406 0.0918,0.0547 c -0.0168,-0.0104 -0.0398,-0.019 -0.0566,-0.0293 -0.0125,-0.007 -0.0226,-0.018 -0.0352,-0.0254 z m 95.99219,1.46094 h 0.65625 v 17.77539 c -0.21741,0.0578 -0.43701,0.11265 -0.65625,0.16797 z m 160.00976,0.85938 c 0.01,0.2934 0.0547,0.52822 0.0547,0.83789 v 0.18359 h -0.0352 z m -284.78125,4.21875 c 0.9708,1.16814 2.05625,2.2435 3.32422,3.11523 l 0.0723,0.0488 0.0762,0.0488 c 0.89397,0.56889 2.14207,1.08277 3.19141,1.62109 -0.99024,-0.3449 -2.07269,-0.62128 -2.97461,-1.03125 l -3.83985,-1.74609 c 0.0559,-0.68349 0.1331,-1.35566 0.15039,-2.05664 z m 21.06446,0.76757 c 0.85265,0.42062 1.88453,0.84315 2.55273,1.25586 l 0.0449,0.0293 0.0469,0.0273 c 0.99127,0.58311 1.54306,1.16347 1.95508,1.87305 l 0.0293,0.0508 0.0312,0.0508 c 0.31118,0.50771 0.63086,1.4319 0.63086,3.07618 0,2.02147 -0.49646,3.13251 -1.30078,4.10546 0.41917,-0.95796 0.7168,-1.96435 0.7168,-2.95507 0,-1.57397 -0.53935,-3.27207 -1.46094,-4.59961 -1.01867,-1.54172 -2.08627,-2.2546 -3.24609,-2.91407 z m 125.54492,1.13672 c -0.86064,1.62735 -1.38086,3.44243 -1.38086,5.22657 0,2.28237 0.84817,4.89097 2.6543,6.73242 -0.69993,-0.29117 -1.34523,-0.63216 -1.92188,-1.13672 -0.9868,-0.86345 -1.74805,-2.29485 -1.74805,-5.66797 0,-3.00741 0.61062,-4.01178 2.17969,-5.06641 0.0475,-0.0319 0.16658,-0.0561 0.2168,-0.0879 z m -38.72852,2.08985 h 6.89063 v 1.3457 c -0.60439,0.0412 -1.09096,0.10156 -1.91211,0.10156 -2.39001,0 -3.78262,-0.50541 -4.71875,-1.18164 -0.0987,-0.0755 -0.16571,-0.18616 -0.25977,-0.26562 z m 49.92383,1.96679 c -0.59954,0.45997 -1.19095,0.70508 -2.39258,0.70508 -0.0126,0 -0.001,-0.002 -0.0137,-0.002 0.0382,-0.038 -0.0215,-0.1696 0.0996,-0.27344 -0.1532,0.13132 0.81383,-0.18595 2.30664,-0.42969 z m -171.40234,4.63868 -0.0156,0.0273 c 0.005,-0.007 0.007,-0.016 0.0117,-0.0234 0.001,-0.002 0.003,-0.002 0.004,-0.004 z"
           id="path7" />
        <path
           style="color:#000000;fill:#ffffff;-inkscape-stroke:none"
           d="m 281.6,284.51101 h -10.872 v -22.176 h -20.376 v 22.176 H 239.48 v -51.408 h 10.872 v 20.16 h 20.376 v -20.16 H 281.6 Z m 47.80796,-19.728 q 0,9.792 -5.184,15.12 -5.112,5.328 -13.968,5.328 -5.472,0 -9.792,-2.376 -4.248,-2.376 -6.696,-6.912 -2.448,-4.608 -2.448,-11.16 0,-9.792 5.112,-15.048 5.112,-5.256 14.04,-5.256 5.544,0 9.792,2.376 4.248,2.376 6.696,6.912 2.448,4.536 2.448,11.016 z m -27.144,0 q 0,5.832 1.872,8.856 1.944,2.952 6.264,2.952 4.248,0 6.12,-2.952 1.944,-3.024 1.944,-8.856 0,-5.832 -1.944,-8.712 -1.872,-2.952 -6.192,-2.952 -4.248,0 -6.192,2.952 -1.872,2.88 -1.872,8.712 z m 63.43196,8.064 q 0,5.976 -4.248,9.216 -4.176,3.168 -12.528,3.168 -4.104,0 -7.056,-0.576 -2.952,-0.504 -5.904,-1.728 v -8.856 q 3.168,1.44 6.84,2.376 3.672,0.936 6.48,0.936 3.096,0 4.464,-0.936 1.368,-0.936 1.368,-2.448 0,-1.008 -0.576,-1.8 -0.504,-0.792 -2.304,-1.8 -1.8,-1.008 -5.616,-2.592 -3.744,-1.584 -6.12,-3.096 -2.304,-1.584 -3.456,-3.744 -1.152,-2.232 -1.152,-5.544 0,-5.472 4.248,-8.208 4.248,-2.736 11.304,-2.736 3.672,0 6.984,0.72 3.312,0.72 6.84,2.376 l -3.24,7.704 q -2.88,-1.224 -5.472,-2.016 -2.592,-0.864 -5.256,-0.864 -4.752,0 -4.752,2.592 0,0.936 0.576,1.728 0.648,0.72 2.376,1.584 1.8,0.864 5.256,2.304 3.384,1.368 5.832,2.88 2.448,1.44 3.744,3.672 1.368,2.232 1.368,5.688 z m 24.91198,3.816 q 1.8,0 3.456,-0.288 1.656,-0.36 3.312,-0.936 v 7.992 q -1.728,0.792 -4.32,1.296 -2.52,0.504 -5.544,0.504 -3.528,0 -6.336,-1.152 -2.736,-1.152 -4.392,-3.96 -1.584,-2.808 -1.584,-7.92 v -18.936 h -5.112 v -4.536 l 5.904,-3.6 3.096,-8.28 h 6.84 v 8.352 h 11.016 v 8.064 h -11.016 v 18.936 q 0,2.232 1.296,3.384 1.296,1.08 3.384,1.08 z m 53.78402,-21.024 h 20.376 v 26.64 q -4.032,1.368 -8.424,2.16 -4.392,0.792 -9.864,0.792 -11.52,0 -17.712,-6.768 -6.192,-6.768 -6.192,-19.728 0,-8.064 3.096,-13.968 3.096,-5.904 9.072,-9.144 6.048,-3.24 14.688,-3.24 4.104,0 8.064,0.864 3.96,0.864 7.2,2.304 l -3.6,8.712 q -2.376,-1.224 -5.4,-2.016 -3.024,-0.792 -6.336,-0.792 -4.752,0 -8.28,2.16 -3.456,2.16 -5.4,6.12 -1.872,3.96 -1.872,9.216 0,5.04 1.368,8.928 1.368,3.888 4.32,6.12 2.952,2.16 7.704,2.16 2.304,0 3.888,-0.216 1.584,-0.216 3.024,-0.504 v -10.728 h -9.72 z m 47.88006,-11.232 q 7.92,0 12.096,3.456 4.248,3.384 4.248,10.44 v 26.208 h -7.488 l -2.088,-5.328 h -0.288 q -2.52,3.168 -5.328,4.608 -2.808,1.44 -7.704,1.44 -5.256,0 -8.712,-3.024 -3.456,-3.024 -3.456,-9.432 0,-6.264 4.392,-9.216 4.392,-2.952 13.176,-3.312 l 6.84,-0.216 v -1.728 q 0,-3.096 -1.656,-4.536 -1.584,-1.44 -4.464,-1.44 -2.88,0 -5.616,0.864 -2.736,0.792 -5.472,2.016 l -3.528,-7.272 q 3.096,-1.584 6.984,-2.52 3.888,-1.008 8.064,-1.008 z m 5.688,21.888 -4.176,0.144 q -5.184,0.144 -7.2,1.872 -2.016,1.728 -2.016,4.536 0,2.448 1.44,3.528 1.44,1.008 3.744,1.008 3.456,0 5.832,-2.016 2.376,-2.088 2.376,-5.832 z m 67.82401,-21.816 q 6.696,0 10.08,3.456 3.456,3.384 3.456,10.944 v 25.632 h -10.728 v -22.968 q 0,-8.496 -5.904,-8.496 -4.248,0 -6.048,3.024 -1.8,3.024 -1.8,8.712 v 19.728 h -10.728 v -22.968 q 0,-8.496 -5.904,-8.496 -4.464,0 -6.192,3.384 -1.656,3.312 -1.656,9.576 v 18.504 h -10.728 v -39.312 h 8.208 l 1.44,5.04 h 0.576 q 1.8,-3.024 4.896,-4.392 3.168,-1.368 6.552,-1.368 4.32,0 7.272,1.44 3.024,1.368 4.68,4.32 h 0.936 q 1.8,-3.024 4.968,-4.392 3.24,-1.368 6.624,-1.368 z m 40.75204,0 q 8.136,0 12.888,4.68 4.752,4.608 4.752,13.176 v 5.184 h -25.344 q 0.144,4.536 2.664,7.128 2.592,2.592 7.128,2.592 3.744,0 6.84,-0.72 3.168,-0.792 6.48,-2.376 v 8.28 q -2.952,1.44 -6.12,2.088 -3.168,0.72 -7.704,0.72 -5.904,0 -10.44,-2.16 -4.536,-2.232 -7.128,-6.624 -2.592,-4.464 -2.592,-11.304 0,-6.84 2.304,-11.448 2.376,-4.608 6.552,-6.912 4.176,-2.304 9.72,-2.304 z m 0.072,7.632 q -3.168,0 -5.184,2.016 -2.016,2.016 -2.376,6.264 h 15.048 q -0.072,-3.528 -1.944,-5.904 -1.8,-2.376 -5.544,-2.376 z"
           id="path6" />
      </g>
    </g>
  </g>
</svg>
