<?xml version="1.0" encoding="UTF-8" standalone="no"?>
<svg
   version="1.1"
   id="svg1"
   inkscape:version="1.3-beta (cedbd6c6ff, 2023-05-28)"
   sodipodi:docname="host_button_cropped_red_outlineless.svg"
   viewBox="62.03 60.15 104.45 16.65"
   xmlns:inkscape="http://www.inkscape.org/namespaces/inkscape"
   xmlns:sodipodi="http://sodipodi.sourceforge.net/DTD/sodipodi-0.dtd"
   xmlns="http://www.w3.org/2000/svg"
   xmlns:svg="http://www.w3.org/2000/svg">
  <sodipodi:namedview
     id="namedview1"
     pagecolor="#505050"
     bordercolor="#eeeeee"
     borderopacity="1"
     inkscape:showpageshadow="0"
     inkscape:pageopacity="0"
     inkscape:pagecheckerboard="0"
     inkscape:deskcolor="#505050"
     inkscape:document-units="mm"
     inkscape:zoom="8"
     inkscape:cx="43.3125"
     inkscape:cy="17.1875"
     inkscape:window-width="1920"
     inkscape:window-height="1030"
     inkscape:window-x="-8"
     inkscape:window-y="22"
     inkscape:window-maximized="1"
     inkscape:current-layer="layer1" />
  <defs
     id="defs1">
    <rect
       x="233"
       y="219"
       width="436"
       height="163"
       id="rect6" />
  </defs>
  <g
     inkscape:label="Layer 1"
     inkscape:groupmode="layer"
     id="layer1">
    <g
       id="text2"
       transform="scale(0.26458333)"
       inkscape:label="text2">
      <g
         id="text6">
        <path
           style="color:#000000;fill:#ff0000;-inkscape-stroke:none"
           d="m 281.6,284.51101 h -10.872 v -22.176 h -20.376 v 22.176 H 239.48 v -51.408 h 10.872 v 20.16 h 20.376 v -20.16 H 281.6 Z m 47.80796,-19.728 q 0,9.792 -5.184,15.12 -5.112,5.328 -13.968,5.328 -5.472,0 -9.792,-2.376 -4.248,-2.376 -6.696,-6.912 -2.448,-4.608 -2.448,-11.16 0,-9.792 5.112,-15.048 5.112,-5.256 14.04,-5.256 5.544,0 9.792,2.376 4.248,2.376 6.696,6.912 2.448,4.536 2.448,11.016 z m -27.144,0 q 0,5.832 1.872,8.856 1.944,2.952 6.264,2.952 4.248,0 6.12,-2.952 1.944,-3.024 1.944,-8.856 0,-5.832 -1.944,-8.712 -1.872,-2.952 -6.192,-2.952 -4.248,0 -6.192,2.952 -1.872,2.88 -1.872,8.712 z m 63.43196,8.064 q 0,5.976 -4.248,9.216 -4.176,3.168 -12.528,3.168 -4.104,0 -7.056,-0.576 -2.952,-0.504 -5.904,-1.728 v -8.856 q 3.168,1.44 6.84,2.376 3.672,0.936 6.48,0.936 3.096,0 4.464,-0.936 1.368,-0.936 1.368,-2.448 0,-1.008 -0.576,-1.8 -0.504,-0.792 -2.304,-1.8 -1.8,-1.008 -5.616,-2.592 -3.744,-1.584 -6.12,-3.096 -2.304,-1.584 -3.456,-3.744 -1.152,-2.232 -1.152,-5.544 0,-5.472 4.248,-8.208 4.248,-2.736 11.304,-2.736 3.672,0 6.984,0.72 3.312,0.72 6.84,2.376 l -3.24,7.704 q -2.88,-1.224 -5.472,-2.016 -2.592,-0.864 -5.256,-0.864 -4.752,0 -4.752,2.592 0,0.936 0.576,1.728 0.648,0.72 2.376,1.584 1.8,0.864 5.256,2.304 3.384,1.368 5.832,2.88 2.448,1.44 3.744,3.672 1.368,2.232 1.368,5.688 z m 24.91198,3.816 q 1.8,0 3.456,-0.288 1.656,-0.36 3.312,-0.936 v 7.992 q -1.728,0.792 -4.32,1.296 -2.52,0.504 -5.544,0.504 -3.528,0 -6.336,-1.152 -2.736,-1.152 -4.392,-3.96 -1.584,-2.808 -1.584,-7.92 v -18.936 h -5.112 v -4.536 l 5.904,-3.6 3.096,-8.28 h 6.84 v 8.352 h 11.016 v 8.064 h -11.016 v 18.936 q 0,2.232 1.296,3.384 1.296,1.08 3.384,1.08 z m 53.78402,-21.024 h 20.376 v 26.64 q -4.032,1.368 -8.424,2.16 -4.392,0.792 -9.864,0.792 -11.52,0 -17.712,-6.768 -6.192,-6.768 -6.192,-19.728 0,-8.064 3.096,-13.968 3.096,-5.904 9.072,-9.144 6.048,-3.24 14.688,-3.24 4.104,0 8.064,0.864 3.96,0.864 7.2,2.304 l -3.6,8.712 q -2.376,-1.224 -5.4,-2.016 -3.024,-0.792 -6.336,-0.792 -4.752,0 -8.28,2.16 -3.456,2.16 -5.4,6.12 -1.872,3.96 -1.872,9.216 0,5.04 1.368,8.928 1.368,3.888 4.32,6.12 2.952,2.16 7.704,2.16 2.304,0 3.888,-0.216 1.584,-0.216 3.024,-0.504 v -10.728 h -9.72 z m 47.88006,-11.232 q 7.92,0 12.096,3.456 4.248,3.384 4.248,10.44 v 26.208 h -7.488 l -2.088,-5.328 h -0.288 q -2.52,3.168 -5.328,4.608 -2.808,1.44 -7.704,1.44 -5.256,0 -8.712,-3.024 -3.456,-3.024 -3.456,-9.432 0,-6.264 4.392,-9.216 4.392,-2.952 13.176,-3.312 l 6.84,-0.216 v -1.728 q 0,-3.096 -1.656,-4.536 -1.584,-1.44 -4.464,-1.44 -2.88,0 -5.616,0.864 -2.736,0.792 -5.472,2.016 l -3.528,-7.272 q 3.096,-1.584 6.984,-2.52 3.888,-1.008 8.064,-1.008 z m 5.688,21.888 -4.176,0.144 q -5.184,0.144 -7.2,1.872 -2.016,1.728 -2.016,4.536 0,2.448 1.44,3.528 1.44,1.008 3.744,1.008 3.456,0 5.832,-2.016 2.376,-2.088 2.376,-5.832 z m 67.82401,-21.816 q 6.696,0 10.08,3.456 3.456,3.384 3.456,10.944 v 25.632 h -10.728 v -22.968 q 0,-8.496 -5.904,-8.496 -4.248,0 -6.048,3.024 -1.8,3.024 -1.8,8.712 v 19.728 h -10.728 v -22.968 q 0,-8.496 -5.904,-8.496 -4.464,0 -6.192,3.384 -1.656,3.312 -1.656,9.576 v 18.504 h -10.728 v -39.312 h 8.208 l 1.44,5.04 h 0.576 q 1.8,-3.024 4.896,-4.392 3.168,-1.368 6.552,-1.368 4.32,0 7.272,1.44 3.024,1.368 4.68,4.32 h 0.936 q 1.8,-3.024 4.968,-4.392 3.24,-1.368 6.624,-1.368 z m 40.75204,0 q 8.136,0 12.888,4.68 4.752,4.608 4.752,13.176 v 5.184 h -25.344 q 0.144,4.536 2.664,7.128 2.592,2.592 7.128,2.592 3.744,0 6.84,-0.72 3.168,-0.792 6.48,-2.376 v 8.28 q -2.952,1.44 -6.12,2.088 -3.168,0.72 -7.704,0.72 -5.904,0 -10.44,-2.16 -4.536,-2.232 -7.128,-6.624 -2.592,-4.464 -2.592,-11.304 0,-6.84 2.304,-11.448 2.376,-4.608 6.552,-6.912 4.176,-2.304 9.72,-2.304 z m 0.072,7.632 q -3.168,0 -5.184,2.016 -2.016,2.016 -2.376,6.264 h 15.048 q -0.072,-3.528 -1.944,-5.904 -1.8,-2.376 -5.544,-2.376 z"
           id="path6" />
      </g>
    </g>
  </g>
</svg>
