<?xml version="1.0" encoding="UTF-8" standalone="no"?>
<svg
   version="1.1"
   id="svg1"
   sodipodi:docname="join_button_cropped_green_outlineless.svg"
   inkscape:version="1.3-beta (cedbd6c6ff, 2023-05-28)"
   viewBox="54.65 104.75 99.9 21.15"
   xmlns:inkscape="http://www.inkscape.org/namespaces/inkscape"
   xmlns:sodipodi="http://sodipodi.sourceforge.net/DTD/sodipodi-0.dtd"
   xmlns="http://www.w3.org/2000/svg"
   xmlns:svg="http://www.w3.org/2000/svg">
  <sodipodi:namedview
     id="namedview1"
     pagecolor="#505050"
     bordercolor="#eeeeee"
     borderopacity="1"
     inkscape:showpageshadow="0"
     inkscape:pageopacity="0"
     inkscape:pagecheckerboard="0"
     inkscape:deskcolor="#505050"
     inkscape:document-units="mm"
     inkscape:zoom="8"
     inkscape:cx="-7.9375"
     inkscape:cy="22.5625"
     inkscape:window-width="1920"
     inkscape:window-height="1030"
     inkscape:window-x="-8"
     inkscape:window-y="22"
     inkscape:window-maximized="1"
     inkscape:current-layer="layer1" />
  <defs
     id="defs1" />
  <g
     inkscape:label="Layer 1"
     inkscape:groupmode="layer"
     id="layer1">
    <g
       id="text2"
       transform="scale(0.26458333)"
       inkscape:label="text2">
      <path
         d="m 296.34961,400.93556 c -1.632,0 -3.02378,0.38434 -4.17578,1.15234 -1.104,0.71999 -1.65625,2.08752 -1.65625,4.10352 0,1.968 0.55225,3.33551 1.65625,4.10351 1.152,0.768 2.54378,1.15235 4.17578,1.15235 1.584,0 2.95152,-0.38435 4.10351,-1.15235 1.152,-0.768 1.72852,-2.13551 1.72852,-4.10351 0,-2.016 -0.57652,-3.38353 -1.72852,-4.10352 -1.15199,-0.768 -2.51951,-1.15234 -4.10351,-1.15234 z m 108.00001,2.59179 c -5.75999,0 -10.65551,1.08025 -14.68751,3.24024 -3.98399,2.16 -7.00827,5.20854 -9.07227,9.14453 -2.064,3.936 -3.0957,8.59081 -3.0957,13.9668 0,8.63999 2.06342,15.21651 6.19141,19.72851 4.128,4.51199 10.0329,6.76758 17.7129,6.76758 3.648,0 6.93529,-0.26302 9.86328,-0.79102 2.928,-0.528 5.73583,-1.24815 8.42383,-2.16015 V 426.78321 H 399.3086 v 9.07227 h 9.72071 v 10.72851 c -0.96,0.192 -1.96744,0.35991 -3.02344,0.50391 -1.05599,0.144 -2.35267,0.21484 -3.88867,0.21484 -3.16799,0 -5.73514,-0.72015 -7.70314,-2.16015 -1.968,-1.48799 -3.40831,-3.52714 -4.32031,-6.11914 -0.91199,-2.59199 -1.36914,-5.56774 -1.36914,-8.92774 0,-3.504 0.62505,-6.57679 1.87305,-9.21679 1.296,-2.64 3.09639,-4.67914 5.40039,-6.11914 2.35201,-1.44 5.1113,-2.16016 8.2793,-2.16016 2.208,0 4.31994,0.26302 6.33594,0.79101 2.01599,0.528 3.81639,1.20158 5.40039,2.01758 l 3.59961,-8.71289 c -2.16,-0.96 -4.55922,-1.72869 -7.19922,-2.30469 -2.64,-0.57599 -5.32845,-0.86328 -8.06445,-0.86328 z m -180.93556,0.72071 v 48.16797 c 0,2.544 -0.28923,4.46376 -0.86523,5.75976 -0.576,1.344 -1.39128,2.25633 -2.44727,2.73633 -1.008,0.47999 -2.13676,0.71875 -3.38476,0.71875 -0.96,0 -1.84807,-0.0709 -2.66407,-0.21484 -0.864,-0.144 -1.67926,-0.31192 -2.44726,-0.50391 v 9.07227 c 0.768,0.23999 1.68033,0.43021 2.73633,0.57421 1.056,0.144 2.27988,0.2168 3.67187,0.2168 3.216,0 6.0481,-0.62309 8.4961,-1.87109 2.448,-1.2 4.3435,-3.16831 5.6875,-5.9043 1.392,-2.688 2.08789,-6.24026 2.08789,-10.65625 v -48.0957 z m 223.7754,11.30273 c -2.784,0 -5.47246,0.33581 -8.06445,1.00781 -2.592,0.624 -4.92038,1.46549 -6.98438,2.52149 l 3.5293,7.27148 c 1.824,-0.816 3.64671,-1.48762 5.4707,-2.01562 1.824,-0.576 3.69719,-0.86524 5.61719,-0.86524 1.92,0 3.40689,0.48142 4.46289,1.44141 1.104,0.96 1.65625,2.47116 1.65625,4.53516 v 1.72851 l -6.83984,0.21484 c -5.85599,0.24 -10.24778,1.34451 -13.17578,3.3125 -2.92799,1.968 -4.39258,5.0408 -4.39258,9.2168 0,4.27199 1.15303,7.41564 3.45703,9.43164 2.30399,2.016 5.20695,3.02344 8.71094,3.02344 3.264,0 5.83308,-0.47945 7.70508,-1.43945 1.872,-0.96 3.64812,-2.49543 5.32812,-4.60743 h 0.28711 l 2.08789,5.32813 h 7.48828 v -26.20898 c 0,-4.70399 -1.41604,-8.18346 -4.24804,-10.43946 -2.784,-2.304 -6.81572,-3.45703 -12.09571,-3.45703 z m -184.03126,0.0723 c -5.952,0 -10.63301,1.75187 -14.04101,5.25586 -3.408,3.504 -5.11133,8.52083 -5.11133,15.04882 0,4.368 0.81527,8.08816 2.44726,11.16016 1.632,3.02399 3.86528,5.32811 6.69727,6.91211 2.88,1.58399 6.14302,2.375 9.79102,2.375 5.90399,0 10.56075,-1.77613 13.96875,-5.32812 3.456,-3.552 5.18359,-8.59116 5.18359,-15.11915 0,-4.32 -0.81527,-7.99162 -2.44727,-11.01562 -1.632,-3.02399 -3.86526,-5.32812 -6.69726,-6.91211 -2.83199,-1.584 -6.09503,-2.37695 -9.79102,-2.37695 z m 72.07227,0 c -2.44799,0 -4.77638,0.45714 -6.98438,1.36914 -2.16,0.912 -3.86528,2.37462 -5.11328,4.39062 h -0.57617 l -1.43945,-5.03906 h -8.20703 v 39.3125 h 10.72656 v -18.50391 c 0,-4.176 0.60079,-7.36817 1.80078,-9.57617 1.2,-2.256 3.43131,-3.38476 6.69531,-3.38476 2.20799,0 3.81622,0.72015 4.82422,2.16015 1.00799,1.392 1.51172,3.50394 1.51172,6.33594 v 22.96875 h 10.72852 v -25.63281 c 0,-5.03999 -1.27241,-8.68736 -3.81641,-10.94336 -2.54399,-2.30399 -5.92639,-3.45703 -10.15039,-3.45703 z m 160.99024,0 c -2.256,0 -4.43878,0.45714 -6.55078,1.36914 -2.064,0.912 -3.69648,2.37462 -4.89648,4.39062 h -0.57617 l -1.43946,-5.03906 h -8.20898 v 39.3125 h 10.72851 v -18.50391 c 0,-4.176 0.55225,-7.36817 1.65625,-9.57617 1.152,-2.256 3.21541,-3.38476 6.19141,-3.38476 3.93599,0 5.9043,2.83209 5.9043,8.49609 v 22.96875 h 10.72851 v -19.72852 c 0,-3.792 0.59883,-6.69689 1.79883,-8.71289 1.2,-2.016 3.21683,-3.02343 6.04883,-3.02343 3.93599,0 5.9043,2.83209 5.9043,8.49609 v 22.96875 h 10.72851 v -25.63281 c 0,-5.03999 -1.15304,-8.68736 -3.45703,-10.94336 -2.256,-2.30399 -5.61609,-3.45703 -10.08008,-3.45703 -2.256,0 -4.46305,0.45714 -6.62305,1.36914 -2.11199,0.912 -3.76875,2.37462 -4.96874,4.39062 h -0.93555 c -1.10399,-1.968 -2.6637,-3.40636 -4.67969,-4.31836 -1.968,-0.96 -4.39344,-1.4414 -7.27344,-1.4414 z m 65.23242,0 c -3.69598,0 -6.93475,0.76868 -9.71874,2.30468 -2.784,1.536 -4.96874,3.84011 -6.55274,6.91211 -1.536,3.072 -2.30469,6.88728 -2.30469,11.44727 0,4.56 0.8638,8.3287 2.5918,11.30469 1.728,2.928 4.10492,5.13504 7.12891,6.62304 3.024,1.44 6.50345,2.16016 10.43945,2.16016 3.02399,0 5.59309,-0.23875 7.70508,-0.71875 2.112,-0.432 4.15114,-1.1279 6.11914,-2.08789 v -8.28125 c -2.208,1.056 -4.36848,1.84895 -6.48047,2.37695 -2.064,0.48 -4.34384,0.71875 -6.83984,0.71875 -3.02399,0 -5.39896,-0.86379 -7.12696,-2.59179 -1.68,-1.728 -2.56806,-4.10296 -2.66406,-7.12696 h 25.34375 v -5.18359 c 0,-5.71199 -1.58395,-10.10574 -4.75195,-13.17774 -3.16799,-3.12 -7.46468,-4.67968 -12.88868,-4.67968 z m -270.50391,0.7207 v 39.3125 h 10.72851 v -39.3125 z m 270.57618,6.91211 c 2.496,0 4.34492,0.79101 5.54492,2.375 1.248,1.584 1.89536,3.5523 1.94336,5.9043 h -15.04883 c 0.24,-2.832 1.03297,-4.91968 2.37696,-6.26368 1.344,-1.344 3.07159,-2.01562 5.18359,-2.01562 z m -298.51173,1.00781 c 2.87999,0 4.94341,0.98317 6.19141,2.95117 1.296,1.92 1.94531,4.82489 1.94531,8.71289 0,3.888 -0.64931,6.83947 -1.94531,8.85547 -1.248,1.968 -3.28714,2.95313 -6.11914,2.95313 -2.88,0 -4.96767,-0.98513 -6.26367,-2.95313 -1.248,-2.016 -1.87305,-4.96747 -1.87305,-8.85547 0,-3.888 0.62505,-6.79289 1.87305,-8.71289 1.296,-1.968 3.3594,-2.95117 6.1914,-2.95117 z m 189.86329,13.17578 v 3.24024 c 0,2.496 -0.791,4.44004 -2.375,5.83203 -1.584,1.344 -3.52803,2.01562 -5.83203,2.01562 -1.536,0 -2.78414,-0.33581 -3.74414,-1.00781 -0.96,-0.72 -1.43945,-1.89534 -1.43945,-3.52734 0,-1.872 0.67162,-3.38511 2.01562,-4.53711 1.344,-1.152 3.74322,-1.7751 7.19922,-1.8711 z"
         style="fill:#00ff00"
         id="path5" />
    </g>
  </g>
</svg>
