<?xml version="1.0" encoding="UTF-8" standalone="no"?>
<!-- Created with Inkscape (http://www.inkscape.org/) -->

<svg
   width="210mm"
   height="297mm"
   viewBox="0 0 210 297"
   version="1.1"
   id="svg1"
   sodipodi:docname="join_button.svg"
   inkscape:version="1.3-beta (cedbd6c6ff, 2023-05-28)"
   xmlns:inkscape="http://www.inkscape.org/namespaces/inkscape"
   xmlns:sodipodi="http://sodipodi.sourceforge.net/DTD/sodipodi-0.dtd"
   xmlns="http://www.w3.org/2000/svg"
   xmlns:svg="http://www.w3.org/2000/svg">
  <sodipodi:namedview
     id="namedview1"
     pagecolor="#505050"
     bordercolor="#eeeeee"
     borderopacity="1"
     inkscape:showpageshadow="0"
     inkscape:pageopacity="0"
     inkscape:pagecheckerboard="0"
     inkscape:deskcolor="#505050"
     inkscape:document-units="mm"
     inkscape:zoom="1"
     inkscape:cx="429.5"
     inkscape:cy="360.5"
     inkscape:window-width="1920"
     inkscape:window-height="1030"
     inkscape:window-x="-8"
     inkscape:window-y="22"
     inkscape:window-maximized="1"
     inkscape:current-layer="text2" />
  <defs
     id="defs1" />
  <g
     inkscape:label="Layer 1"
     inkscape:groupmode="layer"
     id="layer1">
    <g
       id="text2"
       transform="scale(0.26458333)"
       inkscape:label="text2">
      <path
         d="m 296.34961,395.93555 c -2.40781,0 -4.87063,0.61948 -6.92383,1.98048 -2.87582,1.88871 -3.9082,5.35321 -3.9082,8.27539 0,1.69096 0.41846,3.5185 1.25976,5.15234 h -0.82812 v 5 11.37891 c -0.48774,-1.8051 -1.03649,-3.58117 -1.90234,-5.18555 -2.03328,-3.76754 -4.99874,-6.85468 -8.65626,-8.90039 -3.63958,-2.03572 -7.82128,-3.01367 -12.23242,-3.01367 -6.9331,0 -13.20227,2.22223 -17.625,6.76953 -3.68368,3.78745 -5.63666,8.89505 -6.24804,14.67773 v -32.82226 h -20.8711 v 5 48.16797 c 0,2.16501 -0.34956,3.53943 -0.43359,3.72851 l -0.0137,0.0312 -0.0137,0.0312 c -0.0744,0.17359 -0.0732,0.17155 -0.0879,0.20703 -0.27046,0.11972 -0.58059,0.2168 -1.14843,0.2168 -0.714,0 -1.31392,-0.0538 -1.79492,-0.13867 l -0.0234,-0.004 -0.0234,-0.004 c -0.7454,-0.12424 -1.4309,-0.26741 -2.05664,-0.42383 l -6.21289,-1.55274 v 19.15235 l 3.50781,1.0957 c 1.1261,0.35191 2.29466,0.58626 3.55274,0.75781 1.34491,0.1834 2.78133,0.26172 4.34765,0.26172 3.85092,0 7.50679,-0.76504 10.73828,-2.40625 3.43482,-1.69684 6.16059,-4.60156 7.90039,-8.11719 1.88981,-3.67179 2.63282,-7.98619 2.63282,-12.9082 v -13.68359 c 0.29667,3.90154 1.05911,7.5869 2.75195,10.77343 l 0.008,0.0137 0.008,0.0156 c 2.03329,3.76754 4.99876,6.85467 8.65625,8.90039 l 0.0156,0.01 0.0156,0.008 c 3.66145,2.01378 7.8304,2.99414 12.20118,2.99414 6.90118,0 13.15817,-2.27183 17.56445,-6.85742 2.68358,-2.76343 4.40813,-6.25009 5.44336,-10.13477 v 16.27344 h 20.72851 v -49.3125 h -0.79296 c 0.85565,-1.63018 1.29687,-3.46123 1.29687,-5.15234 0,-2.94704 -1.14055,-6.45261 -4.02148,-8.29493 -2.01881,-1.32595 -4.44193,-1.96094 -6.81055,-1.96094 z m 108.00001,2.5918 c -6.38512,0 -12.14351,1.2042 -17.04884,3.83204 l -0.0117,0.006 -0.01,0.006 c -4.78485,2.5942 -8.61342,6.44413 -11.11719,11.21875 -2.49871,4.76499 -3.66797,10.27339 -3.66797,16.28907 0,9.43605 2.30078,17.41849 7.50195,23.10351 5.17075,5.65174 12.74338,8.39258 21.40236,8.39258 3.88833,0 7.46418,-0.27857 10.75,-0.87109 3.16002,-0.56984 6.21169,-1.35064 9.14453,-2.34571 l 3.39258,-1.15039 v -5.76758 c 0.83828,2.26759 2.12958,4.28453 3.94726,5.875 3.24912,2.84299 7.54155,4.25977 12.00391,4.25977 3.75364,0 7.06303,-0.49111 9.98633,-1.99023 0.42634,-0.21864 0.78744,-0.55923 1.19531,-0.8125 l 0.81641,2.08398 h 15.89843 v -31.20898 c 0,-5.69236 -1.96961,-11.00744 -6.10351,-14.32032 -3.97482,-3.26884 -9.25261,-4.57617 -15.24024,-4.57617 -3.17458,0 -6.28194,0.38653 -9.28515,1.16211 -2.90375,0.70285 -5.59331,1.6637 -8.04102,2.91602 l -4.35937,2.23047 6.21484,12.80468 c -0.54896,0.29587 -1.13223,0.54303 -1.64648,0.88867 -2.54799,1.71259 -4.30361,4.26756 -5.38672,7.14454 v -15.91407 h -5.89453 l 7.30273,-17.67968 -4.44922,-1.97657 c -2.51048,-1.11577 -5.2353,-1.98209 -8.16406,-2.62109 -2.99243,-0.65289 -6.04486,-0.97852 -9.13086,-0.97852 z m -108.00001,2.40821 c 1.584,0 2.95152,0.38434 4.10351,1.15234 1.152,0.71999 1.72852,2.08752 1.72852,4.10352 0,1.968 -0.57652,3.33551 -1.72852,4.10351 -1.15198,0.768 -2.51951,1.15235 -4.10351,1.15235 -1.632,0 -3.02378,-0.38435 -4.17578,-1.15235 -1.104,-0.768 -1.65625,-2.13551 -1.65625,-4.10351 0,-2.016 0.55225,-3.38353 1.65625,-4.10352 1.152,-0.768 2.54378,-1.15234 4.17578,-1.15234 z m 108.00001,2.59179 c 2.736,0 5.42445,0.2873 8.06445,0.86328 2.64,0.576 5.03922,1.34469 7.19922,2.30469 l -3.59961,8.71289 c -1.584,-0.816 -3.3844,-1.48958 -5.40039,-2.01758 -2.016,-0.52798 -4.12794,-0.79101 -6.33594,-0.79101 -3.168,0 -5.92729,0.72016 -8.2793,2.16016 -2.304,1.44 -4.10439,3.47914 -5.40039,6.11914 -1.248,2.64 -1.87305,5.71279 -1.87305,9.21679 0,3.36 0.45715,6.33575 1.36914,8.92774 0.912,2.592 2.35231,4.63115 4.32031,6.11914 1.968,1.44 4.53515,2.16015 7.70314,2.16015 1.536,0 2.83268,-0.0708 3.88867,-0.21484 1.056,-0.144 2.06344,-0.31191 3.02344,-0.50391 v -10.72851 h -9.72071 v -9.07227 h 20.37696 v 26.64063 c -2.688,0.912 -5.49583,1.63215 -8.42383,2.16015 -2.92799,0.528 -6.21528,0.79102 -9.86328,0.79102 -7.68,0 -13.5849,-2.25559 -17.7129,-6.76758 -4.12799,-4.512 -6.19141,-11.08852 -6.19141,-19.72851 0,-5.37599 1.0317,-10.0308 3.0957,-13.9668 2.064,-3.93599 5.08828,-6.98453 9.07227,-9.14453 4.032,-2.15999 8.92752,-3.24024 14.68751,-3.24024 z m -180.93556,0.72071 h 10.8711 v 48.0957 c 0,4.41599 -0.69589,7.96825 -2.08789,10.65625 -1.344,2.73599 -3.2395,4.7043 -5.6875,5.9043 -2.448,1.248 -5.2801,1.87109 -8.4961,1.87109 -1.39199,0 -2.61587,-0.0728 -3.67187,-0.2168 -1.056,-0.144 -1.96833,-0.33422 -2.73633,-0.57421 v -9.07227 c 0.768,0.19199 1.58326,0.35991 2.44726,0.50391 0.816,0.14395 1.70407,0.21484 2.66407,0.21484 1.248,0 2.37676,-0.23876 3.38476,-0.71875 1.05599,-0.48 1.87127,-1.39233 2.44727,-2.73633 0.576,-1.296 0.86523,-3.21576 0.86523,-5.75976 z m 111.81641,6.375 c -3.07046,0 -6.08314,0.58762 -8.89258,1.74804 l -0.0195,0.008 -0.0176,0.008 c -0.34471,0.14555 -0.61444,0.41856 -0.94726,0.58789 l -0.46485,-1.63086 h -16.97851 v 49.3125 h 20.72656 v -23.50391 c 0,-3.69643 0.62449,-6.14272 1.19336,-7.18945 l 0.0117,-0.0195 0.01,-0.0195 c 0.31793,-0.5977 0.17,-0.73242 2.28125,-0.73242 1.12079,0 0.70419,-0.007 0.72852,0.0273 l 0.0234,0.0332 0.0234,0.0312 c 0.0631,0.0871 0.56055,1.16519 0.56055,3.4043 v 27.96875 h 20.72852 v -30.63281 c 0,-5.87097 -1.56959,-11.17991 -5.48047,-14.66211 -3.56142,-3.21602 -8.36098,-4.73828 -13.48633,-4.73828 z m 160.99024,0 c -2.93144,0 -5.82838,0.6113 -8.5332,1.77929 l -0.0195,0.008 -0.0195,0.008 c -0.25084,0.11083 -0.44151,0.32115 -0.68555,0.44531 l -0.43359,-1.51953 h -16.98047 v 49.3125 h 20.72851 v -23.50391 c 0,-3.72852 0.58754,-6.24644 1.12696,-7.33007 0.3209,-0.65369 0.049,-0.63086 1.7207,-0.63086 0.76876,0 0.2296,-0.15682 0.32227,-0.0234 0.0927,0.13334 0.58203,1.26672 0.58203,3.51953 v 27.96875 h 20.72851 v -24.72852 c 0,-3.26559 0.60151,-5.326 1.09571,-6.15625 0.31504,-0.52927 0.10573,-0.58007 1.75195,-0.58007 0.76876,0 0.2296,-0.15682 0.32226,-0.0234 0.0927,0.13334 0.58204,1.26672 0.58204,3.51953 v 27.96875 h 20.72851 v -15.06445 c 0.49791,1.58154 1.09232,3.108 1.90625,4.50976 l 0.01,0.0156 0.008,0.0156 c 2.18907,3.70925 5.37848,6.67388 9.22851,8.56836 l 0.0293,0.0137 0.0273,0.0137 c 3.78392,1.80186 8.04395,2.64648 12.58984,2.64648 3.26016,0 6.14379,-0.24971 8.74414,-0.83398 2.51206,-0.51726 4.94801,-1.34513 7.27148,-2.47852 l 2.8086,-1.36914 v -13.0293 h 2.23242 v -10.18359 c 0,-6.62855 -1.98766,-12.60172 -6.25781,-16.75195 -4.18387,-4.11278 -10.00688,-6.10547 -16.38282,-6.10547 -4.38923,0 -8.53243,0.94024 -12.13476,2.92773 -3.66705,2.0232 -6.60455,5.16673 -8.58008,8.99805 l -0.0156,0.0273 -0.0137,0.0273 c -0.74781,1.49563 -1.19164,3.16784 -1.63281,4.84179 -0.36146,-4.70965 -1.71405,-8.8861 -4.76562,-11.89648 -3.40738,-3.45328 -8.30445,-4.92578 -13.60938,-4.92578 -2.93144,0 -5.83556,0.60982 -8.56836,1.76367 l -0.0176,0.008 -0.0195,0.008 c -1.24954,0.53958 -2.35791,1.33548 -3.42187,2.17774 -0.96126,-0.77106 -1.94574,-1.52153 -3.06836,-2.03516 -2.81228,-1.35444 -5.97801,-1.92187 -9.38477,-1.92187 z m -49.03125,4.92773 c 5.27999,0 9.31171,1.15303 12.09571,3.45703 2.832,2.256 4.24804,5.73547 4.24804,10.43946 v 26.20898 h -7.48828 l -2.08789,-5.32813 h -0.28711 c -1.68,2.11201 -3.45612,3.64743 -5.32812,4.60743 -1.872,0.96 -4.44108,1.43945 -7.70508,1.43945 -3.50399,0 -6.40695,-1.00744 -8.71094,-3.02344 -2.304,-2.016 -3.45703,-5.15965 -3.45703,-9.43164 0,-4.176 1.46459,-7.2488 4.39258,-9.2168 2.928,-1.96799 7.31979,-3.07249 13.17578,-3.3125 l 6.83984,-0.21484 v -1.72851 c 0,-2.064 -0.55225,-3.57516 -1.65625,-4.53516 -1.056,-0.95999 -2.54289,-1.44141 -4.46289,-1.44141 -1.92,0 -3.79318,0.28924 -5.61719,0.86524 -1.82399,0.528 -3.6467,1.19962 -5.4707,2.01562 l -3.5293,-7.27148 c 2.064,-1.056 4.39238,-1.89749 6.98438,-2.52149 2.59199,-0.672 5.28045,-1.00781 8.06445,-1.00781 z m -184.03126,0.0723 c 3.69599,0 6.95903,0.79295 9.79102,2.37695 2.832,1.58399 5.06526,3.88812 6.69726,6.91211 1.632,3.024 2.44727,6.69562 2.44727,11.01562 0,6.52799 -1.72759,11.56715 -5.18359,15.11915 -3.408,3.55198 -8.06476,5.32812 -13.96875,5.32812 -3.648,0 -6.91102,-0.79101 -9.79102,-2.375 -2.83199,-1.584 -5.06527,-3.88812 -6.69727,-6.91211 -1.63199,-3.072 -2.44726,-6.79216 -2.44726,-11.16016 0,-6.52799 1.70333,-11.54482 5.11133,-15.04882 3.408,-3.50399 8.08901,-5.25586 14.04101,-5.25586 z m 72.07227,0 c 4.224,0 7.6064,1.15304 10.15039,3.45703 2.544,2.256 3.81641,5.90337 3.81641,10.94336 v 25.63281 h -10.72852 v -22.96875 c 0,-2.832 -0.50373,-4.94394 -1.51172,-6.33594 -1.008,-1.44 -2.61623,-2.16015 -4.82422,-2.16015 -3.264,0 -5.49531,1.12876 -6.69531,3.38476 -1.19999,2.208 -1.80078,5.40017 -1.80078,9.57617 v 18.50391 h -10.72656 v -39.3125 h 8.20703 l 1.43945,5.03906 h 0.57617 c 1.248,-2.016 2.95328,-3.47862 5.11328,-4.39062 2.208,-0.912 4.53639,-1.36914 6.98438,-1.36914 z m 160.99024,0 c 2.88,0 5.30544,0.4814 7.27344,1.4414 2.01599,0.912 3.5757,2.35036 4.67969,4.31836 h 0.93555 c 1.19998,-2.016 2.85676,-3.47862 4.96874,-4.39062 2.16,-0.912 4.36705,-1.36914 6.62305,-1.36914 4.46399,0 7.82408,1.15304 10.08008,3.45703 2.30399,2.256 3.45703,5.90337 3.45703,10.94336 v 25.63281 h -10.72851 v -22.96875 c 0,-5.664 -1.96831,-8.49609 -5.9043,-8.49609 -2.832,0 -4.84883,1.00743 -6.04883,3.02343 -1.2,2.016 -1.79883,4.92089 -1.79883,8.71289 v 19.72852 h -10.72851 v -22.96875 c 0,-5.664 -1.96831,-8.49609 -5.9043,-8.49609 -2.976,0 -5.03941,1.12876 -6.19141,3.38476 -1.104,2.208 -1.65625,5.40017 -1.65625,9.57617 v 18.50391 h -10.72851 v -39.3125 h 8.20898 l 1.43946,5.03906 h 0.57617 c 1.2,-2.016 2.83248,-3.47862 4.89648,-4.39062 2.112,-0.912 4.29478,-1.36914 6.55078,-1.36914 z m 65.23242,0 c 5.424,0 9.72069,1.55968 12.88868,4.67968 3.168,3.072 4.75195,7.46575 4.75195,13.17774 v 5.18359 h -25.34375 c 0.096,3.024 0.98406,5.39896 2.66406,7.12696 1.728,1.728 4.10297,2.59179 7.12696,2.59179 2.496,0 4.77584,-0.23875 6.83984,-0.71875 2.11199,-0.528 4.27247,-1.32095 6.48047,-2.37695 v 8.28125 c -1.968,0.95999 -4.00714,1.65589 -6.11914,2.08789 -2.11199,0.48 -4.68109,0.71875 -7.70508,0.71875 -3.936,0 -7.41545,-0.72016 -10.43945,-2.16016 -3.02399,-1.488 -5.40091,-3.69504 -7.12891,-6.62304 -1.728,-2.97599 -2.5918,-6.74469 -2.5918,-11.30469 0,-4.55999 0.76869,-8.37527 2.30469,-11.44727 1.584,-3.072 3.76874,-5.37611 6.55274,-6.91211 2.78398,-1.536 6.02277,-2.30468 9.71874,-2.30468 z m -270.50391,0.7207 h 10.72851 v 39.3125 h -10.72851 z m 113.32813,1.25586 c 1.81093,0 3.4866,0.21268 5.06836,0.62695 1.71357,0.4488 3.17027,1.00433 4.37891,1.62696 l 3.74609,1.92968 h -21.53712 c 0.76456,-1.14262 1.61384,-2.08807 2.69923,-2.76953 1.49531,-0.91016 3.24558,-1.41406 5.64453,-1.41406 z m 157.24805,5.65625 c -2.112,0 -3.83959,0.67162 -5.18359,2.01562 -1.34399,1.344 -2.13696,3.43168 -2.37696,6.26368 h 15.04883 c -0.048,-2.352 -0.69536,-4.3203 -1.94336,-5.9043 -1.2,-1.58399 -3.04892,-2.375 -5.54492,-2.375 z m -298.51173,1.00781 c -2.832,0 -4.8954,0.98317 -6.1914,2.95117 -1.248,1.92 -1.87305,4.82489 -1.87305,8.71289 0,3.888 0.62505,6.83947 1.87305,8.85547 1.296,1.968 3.38367,2.95313 6.26367,2.95313 2.832,0 4.87114,-0.98513 6.11914,-2.95313 1.296,-2.016 1.94531,-4.96747 1.94531,-8.85547 0,-3.888 -0.64931,-6.79289 -1.94531,-8.71289 -1.248,-1.968 -3.31142,-2.95117 -6.19141,-2.95117 z m 131.29492,1.23242 v 9.8125 c -0.34014,-1.53985 -0.58398,-3.21749 -0.58398,-5.21289 0,-1.76407 0.23941,-3.24334 0.58398,-4.59961 z m -131.29492,3.76758 c 1.74206,0 1.65229,0.12987 1.96875,0.62891 l 0.0391,0.0605 0.0391,0.0586 c 0.42087,0.62351 1.08984,2.5847 1.08984,5.91601 0,3.33132 -0.64398,5.36461 -1.15039,6.15235 l -0.01,0.0117 -0.008,0.0137 c -0.33296,0.52506 -0.22399,0.63086 -1.89648,0.63086 -1.64889,0 -1.7226,-0.16331 -2.03321,-0.64453 -0.48853,-0.81872 -1.10351,-2.85917 -1.10351,-6.16407 0,-3.34072 0.65241,-5.33992 1.06055,-5.97461 0.36338,-0.55537 0.34716,-0.68945 2.0039,-0.68945 z m 189.86329,8.17578 -4.17578,0.14453 c -3.456,0.096 -5.85522,0.7191 -7.19922,1.8711 -1.344,1.152 -2.01562,2.66511 -2.01562,4.53711 0,1.632 0.47945,2.80734 1.43945,3.52734 0.96,0.672 2.20814,1.00781 3.74414,1.00781 2.304,0 4.24803,-0.67162 5.83203,-2.01562 1.584,-1.39199 2.375,-3.33603 2.375,-5.83203 z m -55.73828,3.41602 h 6.89063 v 1.3457 c -0.6044,0.0409 -1.08947,0.10156 -1.91211,0.10156 -2.38983,0 -3.78195,-0.50491 -4.71875,-1.18164 -0.0987,-0.0755 -0.16571,-0.18618 -0.25977,-0.26562 z m 49.92383,1.9668 c -0.59925,0.45973 -1.19047,0.70507 -2.39258,0.70507 -0.0126,0 -9.7e-4,-0.002 -0.0137,-0.002 0.0382,-0.0382 -0.021,-0.17009 0.0996,-0.27344 -0.15343,0.13151 0.81321,-0.18616 2.30664,-0.42968 z"
         style=""
         id="path6" />
      <path
         d="m 296.34961,400.93556 c -1.632,0 -3.02378,0.38434 -4.17578,1.15234 -1.104,0.71999 -1.65625,2.08752 -1.65625,4.10352 0,1.968 0.55225,3.33551 1.65625,4.10351 1.152,0.768 2.54378,1.15235 4.17578,1.15235 1.584,0 2.95152,-0.38435 4.10351,-1.15235 1.152,-0.768 1.72852,-2.13551 1.72852,-4.10351 0,-2.016 -0.57652,-3.38353 -1.72852,-4.10352 -1.15199,-0.768 -2.51951,-1.15234 -4.10351,-1.15234 z m 108.00001,2.59179 c -5.75999,0 -10.65551,1.08025 -14.68751,3.24024 -3.98399,2.16 -7.00827,5.20854 -9.07227,9.14453 -2.064,3.936 -3.0957,8.59081 -3.0957,13.9668 0,8.63999 2.06342,15.21651 6.19141,19.72851 4.128,4.51199 10.0329,6.76758 17.7129,6.76758 3.648,0 6.93529,-0.26302 9.86328,-0.79102 2.928,-0.528 5.73583,-1.24815 8.42383,-2.16015 V 426.78321 H 399.3086 v 9.07227 h 9.72071 v 10.72851 c -0.96,0.192 -1.96744,0.35991 -3.02344,0.50391 -1.05599,0.144 -2.35267,0.21484 -3.88867,0.21484 -3.16799,0 -5.73514,-0.72015 -7.70314,-2.16015 -1.968,-1.48799 -3.40831,-3.52714 -4.32031,-6.11914 -0.91199,-2.59199 -1.36914,-5.56774 -1.36914,-8.92774 0,-3.504 0.62505,-6.57679 1.87305,-9.21679 1.296,-2.64 3.09639,-4.67914 5.40039,-6.11914 2.35201,-1.44 5.1113,-2.16016 8.2793,-2.16016 2.208,0 4.31994,0.26302 6.33594,0.79101 2.01599,0.528 3.81639,1.20158 5.40039,2.01758 l 3.59961,-8.71289 c -2.16,-0.96 -4.55922,-1.72869 -7.19922,-2.30469 -2.64,-0.57599 -5.32845,-0.86328 -8.06445,-0.86328 z m -180.93556,0.72071 v 48.16797 c 0,2.544 -0.28923,4.46376 -0.86523,5.75976 -0.576,1.344 -1.39128,2.25633 -2.44727,2.73633 -1.008,0.47999 -2.13676,0.71875 -3.38476,0.71875 -0.96,0 -1.84807,-0.0709 -2.66407,-0.21484 -0.864,-0.144 -1.67926,-0.31192 -2.44726,-0.50391 v 9.07227 c 0.768,0.23999 1.68033,0.43021 2.73633,0.57421 1.056,0.144 2.27988,0.2168 3.67187,0.2168 3.216,0 6.0481,-0.62309 8.4961,-1.87109 2.448,-1.2 4.3435,-3.16831 5.6875,-5.9043 1.392,-2.688 2.08789,-6.24026 2.08789,-10.65625 v -48.0957 z m 223.7754,11.30273 c -2.784,0 -5.47246,0.33581 -8.06445,1.00781 -2.592,0.624 -4.92038,1.46549 -6.98438,2.52149 l 3.5293,7.27148 c 1.824,-0.816 3.64671,-1.48762 5.4707,-2.01562 1.824,-0.576 3.69719,-0.86524 5.61719,-0.86524 1.92,0 3.40689,0.48142 4.46289,1.44141 1.104,0.96 1.65625,2.47116 1.65625,4.53516 v 1.72851 l -6.83984,0.21484 c -5.85599,0.24 -10.24778,1.34451 -13.17578,3.3125 -2.92799,1.968 -4.39258,5.0408 -4.39258,9.2168 0,4.27199 1.15303,7.41564 3.45703,9.43164 2.30399,2.016 5.20695,3.02344 8.71094,3.02344 3.264,0 5.83308,-0.47945 7.70508,-1.43945 1.872,-0.96 3.64812,-2.49543 5.32812,-4.60743 h 0.28711 l 2.08789,5.32813 h 7.48828 v -26.20898 c 0,-4.70399 -1.41604,-8.18346 -4.24804,-10.43946 -2.784,-2.304 -6.81572,-3.45703 -12.09571,-3.45703 z m -184.03126,0.0723 c -5.952,0 -10.63301,1.75187 -14.04101,5.25586 -3.408,3.504 -5.11133,8.52083 -5.11133,15.04882 0,4.368 0.81527,8.08816 2.44726,11.16016 1.632,3.02399 3.86528,5.32811 6.69727,6.91211 2.88,1.58399 6.14302,2.375 9.79102,2.375 5.90399,0 10.56075,-1.77613 13.96875,-5.32812 3.456,-3.552 5.18359,-8.59116 5.18359,-15.11915 0,-4.32 -0.81527,-7.99162 -2.44727,-11.01562 -1.632,-3.02399 -3.86526,-5.32812 -6.69726,-6.91211 -2.83199,-1.584 -6.09503,-2.37695 -9.79102,-2.37695 z m 72.07227,0 c -2.44799,0 -4.77638,0.45714 -6.98438,1.36914 -2.16,0.912 -3.86528,2.37462 -5.11328,4.39062 h -0.57617 l -1.43945,-5.03906 h -8.20703 v 39.3125 h 10.72656 v -18.50391 c 0,-4.176 0.60079,-7.36817 1.80078,-9.57617 1.2,-2.256 3.43131,-3.38476 6.69531,-3.38476 2.20799,0 3.81622,0.72015 4.82422,2.16015 1.00799,1.392 1.51172,3.50394 1.51172,6.33594 v 22.96875 h 10.72852 v -25.63281 c 0,-5.03999 -1.27241,-8.68736 -3.81641,-10.94336 -2.54399,-2.30399 -5.92639,-3.45703 -10.15039,-3.45703 z m 160.99024,0 c -2.256,0 -4.43878,0.45714 -6.55078,1.36914 -2.064,0.912 -3.69648,2.37462 -4.89648,4.39062 h -0.57617 l -1.43946,-5.03906 h -8.20898 v 39.3125 h 10.72851 v -18.50391 c 0,-4.176 0.55225,-7.36817 1.65625,-9.57617 1.152,-2.256 3.21541,-3.38476 6.19141,-3.38476 3.93599,0 5.9043,2.83209 5.9043,8.49609 v 22.96875 h 10.72851 v -19.72852 c 0,-3.792 0.59883,-6.69689 1.79883,-8.71289 1.2,-2.016 3.21683,-3.02343 6.04883,-3.02343 3.93599,0 5.9043,2.83209 5.9043,8.49609 v 22.96875 h 10.72851 v -25.63281 c 0,-5.03999 -1.15304,-8.68736 -3.45703,-10.94336 -2.256,-2.30399 -5.61609,-3.45703 -10.08008,-3.45703 -2.256,0 -4.46305,0.45714 -6.62305,1.36914 -2.11199,0.912 -3.76875,2.37462 -4.96874,4.39062 h -0.93555 c -1.10399,-1.968 -2.6637,-3.40636 -4.67969,-4.31836 -1.968,-0.96 -4.39344,-1.4414 -7.27344,-1.4414 z m 65.23242,0 c -3.69598,0 -6.93475,0.76868 -9.71874,2.30468 -2.784,1.536 -4.96874,3.84011 -6.55274,6.91211 -1.536,3.072 -2.30469,6.88728 -2.30469,11.44727 0,4.56 0.8638,8.3287 2.5918,11.30469 1.728,2.928 4.10492,5.13504 7.12891,6.62304 3.024,1.44 6.50345,2.16016 10.43945,2.16016 3.02399,0 5.59309,-0.23875 7.70508,-0.71875 2.112,-0.432 4.15114,-1.1279 6.11914,-2.08789 v -8.28125 c -2.208,1.056 -4.36848,1.84895 -6.48047,2.37695 -2.064,0.48 -4.34384,0.71875 -6.83984,0.71875 -3.02399,0 -5.39896,-0.86379 -7.12696,-2.59179 -1.68,-1.728 -2.56806,-4.10296 -2.66406,-7.12696 h 25.34375 v -5.18359 c 0,-5.71199 -1.58395,-10.10574 -4.75195,-13.17774 -3.16799,-3.12 -7.46468,-4.67968 -12.88868,-4.67968 z m -270.50391,0.7207 v 39.3125 h 10.72851 v -39.3125 z m 270.57618,6.91211 c 2.496,0 4.34492,0.79101 5.54492,2.375 1.248,1.584 1.89536,3.5523 1.94336,5.9043 h -15.04883 c 0.24,-2.832 1.03297,-4.91968 2.37696,-6.26368 1.344,-1.344 3.07159,-2.01562 5.18359,-2.01562 z m -298.51173,1.00781 c 2.87999,0 4.94341,0.98317 6.19141,2.95117 1.296,1.92 1.94531,4.82489 1.94531,8.71289 0,3.888 -0.64931,6.83947 -1.94531,8.85547 -1.248,1.968 -3.28714,2.95313 -6.11914,2.95313 -2.88,0 -4.96767,-0.98513 -6.26367,-2.95313 -1.248,-2.016 -1.87305,-4.96747 -1.87305,-8.85547 0,-3.888 0.62505,-6.79289 1.87305,-8.71289 1.296,-1.968 3.3594,-2.95117 6.1914,-2.95117 z m 189.86329,13.17578 v 3.24024 c 0,2.496 -0.791,4.44004 -2.375,5.83203 -1.584,1.344 -3.52803,2.01562 -5.83203,2.01562 -1.536,0 -2.78414,-0.33581 -3.74414,-1.00781 -0.96,-0.72 -1.43945,-1.89534 -1.43945,-3.52734 0,-1.872 0.67162,-3.38511 2.01562,-4.53711 1.344,-1.152 3.74322,-1.7751 7.19922,-1.8711 z"
         style="fill:#ffffff"
         id="path5" />
    </g>
  </g>
</svg>
