<?xml version="1.0" encoding="UTF-8" standalone="no"?>
<svg
   width="100mm"
   height="160mm"
   viewBox="0 0 100 160"
   version="1.1"
   id="svg8"
   inkscape:version="1.3-beta (cedbd6c6ff, 2023-05-28)"
   sodipodi:docname="cardback.svg"
   xmlns:inkscape="http://www.inkscape.org/namespaces/inkscape"
   xmlns:sodipodi="http://sodipodi.sourceforge.net/DTD/sodipodi-0.dtd"
   xmlns="http://www.w3.org/2000/svg"
   xmlns:svg="http://www.w3.org/2000/svg"
   xmlns:rdf="http://www.w3.org/1999/02/22-rdf-syntax-ns#"
   xmlns:cc="http://creativecommons.org/ns#"
   xmlns:dc="http://purl.org/dc/elements/1.1/">
  <sodipodi:namedview
     id="base"
     pagecolor="#666666"
     bordercolor="#666666"
     borderopacity="1.0"
     inkscape:pageopacity="0"
     inkscape:pageshadow="2"
     inkscape:zoom="0.57875767"
     inkscape:cx="49.243408"
     inkscape:cy="272.13462"
     inkscape:document-units="mm"
     inkscape:current-layer="layer1"
     inkscape:document-rotation="0"
     showgrid="false"
     inkscape:window-width="1904"
     inkscape:window-height="1014"
     inkscape:window-x="69"
     inkscape:window-y="99"
     inkscape:window-maximized="0"
     inkscape:showpageshadow="0"
     inkscape:pagecheckerboard="0"
     inkscape:deskcolor="#505050"
     showguides="false" />
  <defs
     id="defs2">
    <inkscape:path-effect
       effect="fillet_chamfer"
       id="path-effect846-18"
       is_visible="true"
       lpeversion="1"
       satellites_param="F,0,0,1,0,5.2916667,0,1 @ F,0,0,1,0,5.2916667,0,1 @ F,0,0,1,0,5.2916667,0,1 @ F,0,0,1,0,5.2916667,0,1"
       unit="px"
       method="auto"
       mode="F"
       radius="20"
       chamfer_steps="1"
       flexible="false"
       use_knot_distance="true"
       apply_no_radius="true"
       apply_with_radius="true"
       only_selected="false"
       hide_knots="false"
       nodesatellites_param="F,0,0,1,0,5.2916667,0,1 @ F,0,0,1,0,5.2916667,0,1 @ F,0,0,1,0,5.2916667,0,1 @ F,0,0,1,0,5.2916667,0,1" />
    <mask
       maskUnits="userSpaceOnUse"
       id="mask1">
      <path
         id="path1"
         style="display:inline;fill:#00e2ff;fill-opacity:1;stroke:#ffffff;stroke-width:9.61199;stroke-linecap:round;stroke-linejoin:round;stroke-miterlimit:4;stroke-dasharray:none;stroke-opacity:1;paint-order:markers stroke fill"
         d="M 89.902509,4.80582 H 10.097483 A 5.2916667,5.2916667 0 0 0 4.8058168,10.097487 V 149.90252 a 5.2916667,5.2916667 0 0 0 5.2916662,5.29167 h 79.805026 a 5.2916667,5.2916667 0 0 0 5.291667,-5.29167 V 10.097487 A 5.2916667,5.2916667 0 0 0 89.902509,4.80582 Z" />
    </mask>
    <inkscape:path-effect
       effect="fillet_chamfer"
       id="path-effect846-18-5"
       is_visible="true"
       lpeversion="1"
       satellites_param="F,0,0,1,0,5.2916667,0,1 @ F,0,0,1,0,5.2916667,0,1 @ F,0,0,1,0,5.2916667,0,1 @ F,0,0,1,0,5.2916667,0,1"
       unit="px"
       method="auto"
       mode="F"
       radius="20"
       chamfer_steps="1"
       flexible="false"
       use_knot_distance="true"
       apply_no_radius="true"
       apply_with_radius="true"
       only_selected="false"
       hide_knots="false"
       nodesatellites_param="F,0,0,1,0,5.2916667,0,1 @ F,0,0,1,0,5.2916667,0,1 @ F,0,0,1,0,5.2916667,0,1 @ F,0,0,1,0,5.2916667,0,1" />
    <inkscape:path-effect
       effect="fillet_chamfer"
       id="path-effect846-18-6"
       is_visible="true"
       lpeversion="1"
       satellites_param="F,0,0,1,0,5.2916667,0,1 @ F,0,0,1,0,5.2916667,0,1 @ F,0,0,1,0,5.2916667,0,1 @ F,0,0,1,0,5.2916667,0,1"
       unit="px"
       method="auto"
       mode="F"
       radius="20"
       chamfer_steps="1"
       flexible="false"
       use_knot_distance="true"
       apply_no_radius="true"
       apply_with_radius="true"
       only_selected="false"
       hide_knots="false"
       nodesatellites_param="F,0,0,1,0,5.2916667,0,1 @ F,0,0,1,0,5.2916667,0,1 @ F,0,0,1,0,5.2916667,0,1 @ F,0,0,1,0,5.2916667,0,1" />
    <inkscape:path-effect
       effect="fillet_chamfer"
       id="path-effect846-18-9"
       is_visible="true"
       lpeversion="1"
       satellites_param="F,0,0,1,0,5.2916667,0,1 @ F,0,0,1,0,5.2916667,0,1 @ F,0,0,1,0,5.2916667,0,1 @ F,0,0,1,0,5.2916667,0,1"
       unit="px"
       method="auto"
       mode="F"
       radius="20"
       chamfer_steps="1"
       flexible="false"
       use_knot_distance="true"
       apply_no_radius="true"
       apply_with_radius="true"
       only_selected="false"
       hide_knots="false"
       nodesatellites_param="F,0,0,1,0,5.2916667,0,1 @ F,0,0,1,0,5.2916667,0,1 @ F,0,0,1,0,5.2916667,0,1 @ F,0,0,1,0,5.2916667,0,1" />
    <mask
       maskUnits="userSpaceOnUse"
       id="mask5">
      <path
         style="display:inline;fill:#1b1b1b;fill-opacity:1;stroke:#ffffff;stroke-width:9.612;stroke-linecap:round;stroke-linejoin:round;stroke-miterlimit:4;stroke-dasharray:none;stroke-opacity:1;paint-order:markers stroke fill"
         id="path5"
         width="90.388359"
         height="150.38837"
         x="-95.194176"
         y="4.80582"
         sodipodi:type="rect"
         transform="matrix(-1,0,0,1,1.8358231e-4,1.8024445e-4)"
         inkscape:label="Card"
         d="m -89.902509,4.80582 79.805026,0 a 5.2916667,5.2916667 45 0 1 5.2916663,5.291667 V 149.90252 a 5.2916667,5.2916667 135 0 1 -5.2916663,5.29167 h -79.805026 a 5.2916667,5.2916667 45 0 1 -5.291667,-5.29167 V 10.097487 a 5.2916667,5.2916667 135 0 1 5.291667,-5.291667 z"
         inkscape:path-effect="#path-effect846-18-9" />
    </mask>
  </defs>
  <metadata
     id="metadata5">
    <rdf:RDF>
      <cc:Work
         rdf:about="">
        <dc:format>image/svg+xml</dc:format>
        <dc:type
           rdf:resource="http://purl.org/dc/dcmitype/StillImage" />
      </cc:Work>
    </rdf:RDF>
  </metadata>
  <g
     inkscape:label="Layer 1"
     inkscape:groupmode="layer"
     id="layer1">
    <path
       style="display:inline;fill:#1b1b1b;fill-opacity:1;stroke:#ffffff;stroke-width:9.612;stroke-linecap:round;stroke-linejoin:round;stroke-miterlimit:4;stroke-dasharray:none;stroke-opacity:1;paint-order:markers stroke fill"
       id="path844-1"
       width="90.388359"
       height="150.38837"
       x="-95.194176"
       y="4.80582"
       sodipodi:type="rect"
       transform="matrix(-1,0,0,1,1.8358231e-4,1.8024445e-4)"
       inkscape:label="Card"
       d="m -89.902509,4.80582 79.805026,0 a 5.2916667,5.2916667 45 0 1 5.2916663,5.291667 V 149.90252 a 5.2916667,5.2916667 135 0 1 -5.2916663,5.29167 h -79.805026 a 5.2916667,5.2916667 45 0 1 -5.291667,-5.29167 V 10.097487 a 5.2916667,5.2916667 135 0 1 5.291667,-5.291667 z"
       inkscape:path-effect="#path-effect846-18" />
    <path
       d="m 6.5381022,153.5715 a 5.2916667,5.2916667 0 0 0 0.9136393,0.91416 5.2916667,5.2916667 0 0 0 2.6458335,0.70848 h 79.804948 a 5.2916667,5.2916667 0 0 0 2.645833,-0.70848 5.2916667,5.2916667 0 0 0 1.936833,-1.93735 5.2916667,5.2916667 0 0 0 0.709,-2.64583 V 10.097575 A 5.2916667,5.2916667 0 0 0 95.114091,9.1787679 5.2916667,5.2916667 0 0 0 94.875346,8.2878662 5.2916667,5.2916667 0 0 0 94.485189,7.4517415 5.2916667,5.2916667 0 0 0 93.956539,6.6962321 5.2916667,5.2916667 0 0 0 93.4005,6.1407104 Z"
       style="fill:#000012;fill-opacity:0.1254902;stroke-width:0;stroke:none"
       id="path4"
       inkscape:label="Card Shading" />
    <path
       d="M 100.77421,-6.3748047 93.4005,6.1407104 a 5.2916667,5.2916667 0 0 1 0.556039,0.5555217 5.2916667,5.2916667 0 0 1 0.52865,0.7555094 5.2916667,5.2916667 0 0 1 0.390157,0.8361247 5.2916667,5.2916667 0 0 1 0.238745,0.8909017 5.2916667,5.2916667 0 0 1 0.0801,0.9188071 V 149.90248 a 5.2916667,5.2916667 0 0 1 -0.709,2.64583 5.2916667,5.2916667 0 0 1 -1.936833,1.93735 5.2916667,5.2916667 0 0 1 -2.645833,0.70848 H 10.097575 A 5.2916667,5.2916667 0 0 1 7.4517415,154.48566 5.2916667,5.2916667 0 0 1 6.5381022,153.5715 L 1.0531657,162.88101 105.13467,160.1556 Z"
       style="fill:#0000ff;fill-opacity:0.12549;stroke-width:0;stroke:none"
       id="path2"
       inkscape:label="Rim Shading"
       mask="url(#mask5)" />
  </g>
</svg>
