<?xml version="1.0" encoding="UTF-8" standalone="no"?>
<!-- Created with Inkscape (http://www.inkscape.org/) -->

<svg
   width="210mm"
   height="297mm"
   viewBox="0 0 210 297"
   version="1.1"
   id="svg1"
   inkscape:version="1.3-beta (cedbd6c6ff, 2023-05-28)"
   sodipodi:docname="menubackground.svg"
   xmlns:inkscape="http://www.inkscape.org/namespaces/inkscape"
   xmlns:sodipodi="http://sodipodi.sourceforge.net/DTD/sodipodi-0.dtd"
   xmlns="http://www.w3.org/2000/svg"
   xmlns:svg="http://www.w3.org/2000/svg">
  <sodipodi:namedview
     id="namedview1"
     pagecolor="#ffffff"
     bordercolor="#eeeeee"
     borderopacity="1"
     inkscape:showpageshadow="0"
     inkscape:pageopacity="0"
     inkscape:pagecheckerboard="0"
     inkscape:deskcolor="#505050"
     inkscape:document-units="mm"
     inkscape:zoom="0.5946522"
     inkscape:cx="59.698762"
     inkscape:cy="523.83561"
     inkscape:window-width="1920"
     inkscape:window-height="1030"
     inkscape:window-x="-8"
     inkscape:window-y="22"
     inkscape:window-maximized="1"
     inkscape:current-layer="layer1" />
  <defs
     id="defs1" />
  <g
     inkscape:label="Layer 1"
     inkscape:groupmode="layer"
     id="layer1">
    <g
       id="g1"
       transform="translate(114.8358,38.698094)">
      <circle
         style="fill:none;stroke:#cbcbcb;stroke-width:5.29167;stroke-linecap:round;stroke-linejoin:round;stroke-dasharray:none;stroke-opacity:1;paint-order:markers stroke fill"
         id="path1"
         cx="40.489353"
         cy="27.80862"
         r="12.9032"
         inkscape:label="NoCircle" />
      <rect
         style="fill:#cccccc;fill-opacity:1;stroke:none;stroke-width:5.60661;stroke-linecap:round;stroke-linejoin:round;stroke-dasharray:none;stroke-opacity:1;paint-order:markers stroke fill"
         id="rect1"
         width="26.458334"
         height="5.2916665"
         x="-4.2625346"
         y="45.648129"
         transform="rotate(-45)" />
    </g>
    <path
       d="m 62.845176,124.80032 a 15.549166,15.549166 0 0 1 0.158129,-2.21278 15.549166,15.549166 0 0 1 0.09405,-0.43305 h -0.798401 v 2.64583 z"
       style="fill:#e6e6e6;stroke-width:2.29861;stroke-linecap:round;stroke-linejoin:round;paint-order:markers stroke fill"
       id="path25" />
    <g
       id="g29"
       transform="translate(13.213983,-39.799259)"
       style="fill:#cccccc">
      <path
         d="m 101.02691,109.74886 h -5.414141 a 10.257499,10.257499 0 0 1 -0.03772,0.16123 10.257499,10.257499 0 0 1 -0.300757,0.89865 10.257499,10.257499 0 0 1 -0.382922,0.86661 10.257499,10.257499 0 0 1 -0.460954,0.82786 10.257499,10.257499 0 0 1 -0.535368,0.78135 10.257499,10.257499 0 0 1 -0.605131,0.72915 10.257499,10.257499 0 0 1 -0.670243,0.66973 10.257499,10.257499 0 0 1 -0.728638,0.60565 10.257499,10.257499 0 0 1 -0.781865,0.53536 10.257499,10.257499 0 0 1 -0.827856,0.46096 10.257499,10.257499 0 0 1 -0.866614,0.3824 10.257499,10.257499 0 0 1 -0.898136,0.30128 10.257499,10.257499 0 0 1 -0.922424,0.21704 10.257499,10.257499 0 0 1 -0.938444,0.13074 10.257499,10.257499 0 0 1 -0.946196,0.0439 10.257499,10.257499 0 0 1 -0.946712,-0.0439 10.257499,10.257499 0 0 1 -0.938444,-0.13074 10.257499,10.257499 0 0 1 -0.921908,-0.21704 10.257499,10.257499 0 0 1 -0.898653,-0.30128 10.257499,10.257499 0 0 1 -0.866614,-0.3824 10.257499,10.257499 0 0 1 -0.827856,-0.46096 10.257499,10.257499 0 0 1 -0.781348,-0.53536 10.257499,10.257499 0 0 1 -0.729154,-0.60565 10.257499,10.257499 0 0 1 -0.669727,-0.66973 10.257499,10.257499 0 0 1 -0.605648,-0.72915 10.257499,10.257499 0 0 1 -0.535367,-0.78135 10.257499,10.257499 0 0 1 -0.460954,-0.82786 10.257499,10.257499 0 0 1 -0.382406,-0.86661 10.257499,10.257499 0 0 1 -0.301273,-0.89865 10.257499,10.257499 0 0 1 -0.217041,-0.92191 10.257499,10.257499 0 0 1 -0.130742,-0.93844 10.257499,10.257499 0 0 1 -0.04393,-0.94672 h -5.291666 a 15.549166,15.549166 0 0 0 0.158129,2.21279 15.549166,15.549166 0 0 0 0.47129,2.16782 15.549166,15.549166 0 0 0 0.775663,2.07895 15.549166,15.549166 0 0 0 1.062984,1.94717 15.549166,15.549166 0 0 0 1.329635,1.77611 15.549166,15.549166 0 0 0 1.568896,1.5689 15.549166,15.549166 0 0 0 1.776119,1.32912 15.549166,15.549166 0 0 0 1.947168,1.0635 15.549166,15.549166 0 0 0 2.078426,0.77515 15.549166,15.549166 0 0 0 2.167826,0.4718 15.549166,15.549166 0 0 0 2.213302,0.15813 15.549166,15.549166 0 0 0 0.762744,-0.0186 15.549166,15.549166 0 0 0 0.761194,-0.0563 15.549166,15.549166 0 0 0 0.757577,-0.0935 15.549166,15.549166 0 0 0 0.751892,-0.13023 15.549166,15.549166 0 0 0 0.744657,-0.16743 15.549166,15.549166 0 0 0 0.735356,-0.2036 15.549166,15.549166 0 0 0 0.724503,-0.23927 15.549166,15.549166 0 0 0 0.712101,-0.27492 15.549166,15.549166 0 0 0 0.698149,-0.30902 15.549166,15.549166 0 0 0 0.681612,-0.34313 15.549166,15.549166 0 0 0 0.664042,-0.37621 15.549166,15.549166 0 0 0 0.644405,-0.40824 15.549166,15.549166 0 0 0 0.624252,-0.43977 15.549166,15.549166 0 0 0 0.601513,-0.46922 15.549166,15.549166 0 0 0 0.577743,-0.49868 15.549166,15.549166 0 0 0 0.552938,-0.52606 15.549166,15.549166 0 0 0 0.526066,-0.55294 15.549166,15.549166 0 0 0 0.498677,-0.57774 15.549166,15.549166 0 0 0 0.469739,-0.60203 15.549166,15.549166 0 0 0 0.43925,-0.62374 15.549166,15.549166 0 0 0 0.408244,-0.64492 15.549166,15.549166 0 0 0 0.376204,-0.66404 15.549166,15.549166 0 0 0 0.343132,-0.68161 15.549166,15.549166 0 0 0 0.309024,-0.69764 15.549166,15.549166 0 0 0 0.27492,-0.7121 15.549166,15.549166 0 0 0 0.23926,-0.7245 15.549166,15.549166 0 0 0 0.20361,-0.73587 15.549166,15.549166 0 0 0 0.16743,-0.74466 15.549166,15.549166 0 0 0 0.0672,-0.38757 z"
         style="fill:#cccccc;stroke-width:4.71249;stroke-linejoin:round;paint-order:markers stroke fill"
         id="path24" />
      <path
         d="m 85.709497,91.554102 a 15.549166,15.549166 0 0 0 -2.213302,0.158129 15.549166,15.549166 0 0 0 -2.167826,0.471806 15.549166,15.549166 0 0 0 -2.078426,0.775147 15.549166,15.549166 0 0 0 -1.947168,1.062984 15.549166,15.549166 0 0 0 -1.776119,1.329635 15.549166,15.549166 0 0 0 -1.568896,1.568896 15.549166,15.549166 0 0 0 -1.329118,1.775602 15.549166,15.549166 0 0 0 -1.063501,1.947169 15.549166,15.549166 0 0 0 -0.775147,2.07894 15.549166,15.549166 0 0 0 -0.377754,1.73478 h 5.393469 a 10.257499,10.257499 0 0 1 0.03772,-0.16123 10.257499,10.257499 0 0 1 0.301273,-0.89814 10.257499,10.257499 0 0 1 0.382406,-0.86661 10.257499,10.257499 0 0 1 0.460954,-0.82786 10.257499,10.257499 0 0 1 0.535367,-0.78186 10.257499,10.257499 0 0 1 0.605648,-0.72864 10.257499,10.257499 0 0 1 0.669727,-0.670243 10.257499,10.257499 0 0 1 0.729154,-0.605131 10.257499,10.257499 0 0 1 0.781348,-0.535367 10.257499,10.257499 0 0 1 0.827856,-0.460954 10.257499,10.257499 0 0 1 0.866614,-0.382923 10.257499,10.257499 0 0 1 0.898653,-0.300756 10.257499,10.257499 0 0 1 0.921908,-0.217041 10.257499,10.257499 0 0 1 0.938444,-0.130742 10.257499,10.257499 0 0 1 0.946712,-0.04392 10.257499,10.257499 0 0 1 0.321944,0.0052 10.257499,10.257499 0 0 1 0.321944,0.01499 10.257499,10.257499 0 0 1 0.321428,0.02532 10.257499,10.257499 0 0 1 0.319877,0.03514 10.257499,10.257499 0 0 1 0.31936,0.04548 10.257499,10.257499 0 0 1 0.317294,0.05529 10.257499,10.257499 0 0 1 0.315743,0.06563 10.257499,10.257499 0 0 1 0.313159,0.07493 10.257499,10.257499 0 0 1 0.310575,0.08527 10.257499,10.257499 0 0 1 0.307992,0.09457 10.257499,10.257499 0 0 1 0.304891,0.104387 10.257499,10.257499 0 0 1 0.30179,0.114205 10.257499,10.257499 0 0 1 0.297656,0.12299 10.257499,10.257499 0 0 1 0.293522,0.132808 10.257499,10.257499 0 0 1 0.289388,0.141593 10.257499,10.257499 0 0 1 0.284738,0.150896 10.257499,10.257499 0 0 1 0.280086,0.15968 10.257499,10.257499 0 0 1 0.274402,0.168465 10.257499,10.257499 0 0 1 0.269751,0.176733 10.257499,10.257499 0 0 1 0.263549,0.185519 10.257499,10.257499 0 0 1 0.257349,0.19327 10.257499,10.257499 0 0 1 0.251664,0.201538 10.257499,10.257499 0 0 1 0.244947,0.209289 10.257499,10.257499 0 0 1 0.238745,0.217041 10.257499,10.257499 0 0 1 0.230993,0.224276 10.257499,10.257499 0 0 1 0.224276,0.230997 10.257499,10.257499 0 0 1 0.217041,0.23874 10.257499,10.257499 0 0 1 0.20929,0.24495 10.257499,10.257499 0 0 1 0.201538,0.25115 10.257499,10.257499 0 0 1 0.19327,0.25786 10.257499,10.257499 0 0 1 0.185518,0.26355 10.257499,10.257499 0 0 1 0.176733,0.26924 10.257499,10.257499 0 0 1 0.168466,0.27492 10.257499,10.257499 0 0 1 0.15968,0.28008 10.257499,10.257499 0 0 1 0.150895,0.28474 10.257499,10.257499 0 0 1 0.141593,0.28939 10.257499,10.257499 0 0 1 0.132809,0.29352 10.257499,10.257499 0 0 1 0.12299,0.29766 10.257499,10.257499 0 0 1 0.114205,0.30179 10.257499,10.257499 0 0 1 0.104386,0.30489 10.257499,10.257499 0 0 1 0.09457,0.30799 10.257499,10.257499 0 0 1 0.08475,0.31057 10.257499,10.257499 0 0 1 0.07545,0.31316 10.257499,10.257499 0 0 1 0.06511,0.31575 10.257499,10.257499 0 0 1 0.05581,0.31729 10.257499,10.257499 0 0 1 0.04548,0.31936 10.257499,10.257499 0 0 1 0.03514,0.31988 10.257499,10.257499 0 0 1 0.02532,0.32142 10.257499,10.257499 0 0 1 0.01499,0.32195 10.257499,10.257499 0 0 1 0.0052,0.32194 h 5.29167 a 15.549166,15.549166 0 0 0 -0.15865,-2.21278 15.549166,15.549166 0 0 0 -0.47129,-2.16783 15.549166,15.549166 0 0 0 -0.775662,-2.07842 15.549166,15.549166 0 0 0 -1.062984,-1.947175 15.549166,15.549166 0 0 0 -1.329635,-1.776119 15.549166,15.549166 0 0 0 -1.56838,-1.568896 15.549166,15.549166 0 0 0 -1.776119,-1.329118 15.549166,15.549166 0 0 0 -1.947168,-1.063501 15.549166,15.549166 0 0 0 -2.078426,-0.775147 15.549166,15.549166 0 0 0 -2.167826,-0.471806 15.549166,15.549166 0 0 0 -2.212785,-0.158129 z"
         style="fill:#cccccc;stroke-width:4.71249;stroke-linejoin:round;paint-order:markers stroke fill"
         id="path21" />
    </g>
    <path
       d="M 114.47244,56.720478 103.8891,67.303811 h 10.58334 z"
       style="fill:#cccccc;stroke-width:6.53903;stroke-linejoin:round;paint-order:markers stroke fill"
       id="path30" />
    <path
       d="M 93.957376,67.303761 H 83.374041 v 10.583333 z"
       style="fill:#cccccc;stroke-width:9.24758;stroke-linejoin:round;paint-order:markers stroke fill"
       id="path31" />
    <path
       d="M 0,-10.583333 -10.583333,0 0,10.583333 V 0 h 10.583333 z"
       style="fill:#cccccc;stroke-width:9.24758;stroke-linejoin:round;paint-order:markers stroke fill"
       id="path29" />
  </g>
</svg>
